<?xml version="1.0" encoding="utf-8" standalone="no"?>
<!DOCTYPE svg PUBLIC "-//W3C//DTD SVG 1.1//EN"
  "http://www.w3.org/Graphics/SVG/1.1/DTD/svg11.dtd">
<svg xmlns:xlink="http://www.w3.org/1999/xlink" width="1152pt" height="576pt" viewBox="0 0 1152 576" xmlns="http://www.w3.org/2000/svg" version="1.1">
 <metadata>
  <rdf:RDF xmlns:dc="http://purl.org/dc/elements/1.1/" xmlns:cc="http://creativecommons.org/ns#" xmlns:rdf="http://www.w3.org/1999/02/22-rdf-syntax-ns#">
   <cc:Work>
    <dc:type rdf:resource="http://purl.org/dc/dcmitype/StillImage"/>
    <dc:date>2023-02-20T04:42:24.570288</dc:date>
    <dc:format>image/svg+xml</dc:format>
    <dc:creator>
     <cc:Agent>
      <dc:title>Matplotlib v3.7.0, https://matplotlib.org/</dc:title>
     </cc:Agent>
    </dc:creator>
   </cc:Work>
  </rdf:RDF>
 </metadata>
 <defs>
  <style type="text/css">*{stroke-linejoin: round; stroke-linecap: butt}</style>
 </defs>
 <g id="figure_1">
  <g id="patch_1">
   <path d="M 0 576 
L 1152 576 
L 1152 0 
L 0 0 
z
" style="fill: #ffffff"/>
  </g>
  <g id="axes_1">
   <g id="patch_2">
    <path d="M 144 512.64 
L 1036.8 512.64 
L 1036.8 69.12 
L 144 69.12 
z
" style="fill: #ffffff"/>
   </g>
   <g id="PathCollection_1">
    <defs>
     <path id="m0312465c75" d="M 0 3 
C 0.795609 3 1.55874 2.683901 2.12132 2.12132 
C 2.683901 1.55874 3 0.795609 3 0 
C 3 -0.795609 2.683901 -1.55874 2.12132 -2.12132 
C 1.55874 -2.683901 0.795609 -3 0 -3 
C -0.795609 -3 -1.55874 -2.683901 -2.12132 -2.12132 
C -2.683901 -1.55874 -3 -0.795609 -3 0 
C -3 0.795609 -2.683901 1.55874 -2.12132 2.12132 
C -1.55874 2.683901 -0.795609 3 0 3 
z
" style="stroke: #1f77b4"/>
    </defs>
    <g clip-path="url(#pfb8e1c069c)">
     <use xlink:href="#m0312465c75" x="144" y="208.746667" style="fill: #1f77b4; stroke: #1f77b4"/>
     <use xlink:href="#m0312465c75" x="156.574648" y="343.146667" style="fill: #1f77b4; stroke: #1f77b4"/>
     <use xlink:href="#m0312465c75" x="169.149296" y="223.68" style="fill: #1f77b4; stroke: #1f77b4"/>
     <use xlink:href="#m0312465c75" x="181.723944" y="298.346667" style="fill: #1f77b4; stroke: #1f77b4"/>
     <use xlink:href="#m0312465c75" x="194.298592" y="149.013333" style="fill: #1f77b4; stroke: #1f77b4"/>
     <use xlink:href="#m0312465c75" x="206.873239" y="313.28" style="fill: #1f77b4; stroke: #1f77b4"/>
     <use xlink:href="#m0312465c75" x="219.447887" y="268.48" style="fill: #1f77b4; stroke: #1f77b4"/>
     <use xlink:href="#m0312465c75" x="232.022535" y="313.28" style="fill: #1f77b4; stroke: #1f77b4"/>
     <use xlink:href="#m0312465c75" x="244.597183" y="149.013333" style="fill: #1f77b4; stroke: #1f77b4"/>
     <use xlink:href="#m0312465c75" x="257.171831" y="104.213333" style="fill: #1f77b4; stroke: #1f77b4"/>
     <use xlink:href="#m0312465c75" x="269.746479" y="283.413333" style="fill: #1f77b4; stroke: #1f77b4"/>
     <use xlink:href="#m0312465c75" x="282.321127" y="134.08" style="fill: #1f77b4; stroke: #1f77b4"/>
     <use xlink:href="#m0312465c75" x="294.895775" y="328.213333" style="fill: #1f77b4; stroke: #1f77b4"/>
     <use xlink:href="#m0312465c75" x="307.470423" y="402.88" style="fill: #1f77b4; stroke: #1f77b4"/>
     <use xlink:href="#m0312465c75" x="320.04507" y="402.88" style="fill: #1f77b4; stroke: #1f77b4"/>
     <use xlink:href="#m0312465c75" x="332.619718" y="402.88" style="fill: #1f77b4; stroke: #1f77b4"/>
     <use xlink:href="#m0312465c75" x="345.194366" y="402.88" style="fill: #1f77b4; stroke: #1f77b4"/>
     <use xlink:href="#m0312465c75" x="357.769014" y="283.413333" style="fill: #1f77b4; stroke: #1f77b4"/>
     <use xlink:href="#m0312465c75" x="370.343662" y="268.48" style="fill: #1f77b4; stroke: #1f77b4"/>
     <use xlink:href="#m0312465c75" x="382.91831" y="462.613333" style="fill: #1f77b4; stroke: #1f77b4"/>
     <use xlink:href="#m0312465c75" x="395.492958" y="358.08" style="fill: #1f77b4; stroke: #1f77b4"/>
     <use xlink:href="#m0312465c75" x="408.067606" y="283.413333" style="fill: #1f77b4; stroke: #1f77b4"/>
     <use xlink:href="#m0312465c75" x="420.642254" y="253.546667" style="fill: #1f77b4; stroke: #1f77b4"/>
     <use xlink:href="#m0312465c75" x="433.216901" y="313.28" style="fill: #1f77b4; stroke: #1f77b4"/>
     <use xlink:href="#m0312465c75" x="445.791549" y="313.28" style="fill: #1f77b4; stroke: #1f77b4"/>
     <use xlink:href="#m0312465c75" x="458.366197" y="268.48" style="fill: #1f77b4; stroke: #1f77b4"/>
     <use xlink:href="#m0312465c75" x="470.940845" y="268.48" style="fill: #1f77b4; stroke: #1f77b4"/>
     <use xlink:href="#m0312465c75" x="483.515493" y="417.813333" style="fill: #1f77b4; stroke: #1f77b4"/>
     <use xlink:href="#m0312465c75" x="496.090141" y="328.213333" style="fill: #1f77b4; stroke: #1f77b4"/>
     <use xlink:href="#m0312465c75" x="508.664789" y="298.346667" style="fill: #1f77b4; stroke: #1f77b4"/>
     <use xlink:href="#m0312465c75" x="521.239437" y="223.68" style="fill: #1f77b4; stroke: #1f77b4"/>
     <use xlink:href="#m0312465c75" x="533.814085" y="223.68" style="fill: #1f77b4; stroke: #1f77b4"/>
     <use xlink:href="#m0312465c75" x="546.388732" y="313.28" style="fill: #1f77b4; stroke: #1f77b4"/>
     <use xlink:href="#m0312465c75" x="558.96338" y="358.08" style="fill: #1f77b4; stroke: #1f77b4"/>
     <use xlink:href="#m0312465c75" x="571.538028" y="343.146667" style="fill: #1f77b4; stroke: #1f77b4"/>
     <use xlink:href="#m0312465c75" x="584.112676" y="358.08" style="fill: #1f77b4; stroke: #1f77b4"/>
     <use xlink:href="#m0312465c75" x="596.687324" y="447.68" style="fill: #1f77b4; stroke: #1f77b4"/>
     <use xlink:href="#m0312465c75" x="609.261972" y="343.146667" style="fill: #1f77b4; stroke: #1f77b4"/>
     <use xlink:href="#m0312465c75" x="621.83662" y="432.746667" style="fill: #1f77b4; stroke: #1f77b4"/>
     <use xlink:href="#m0312465c75" x="634.411268" y="193.813333" style="fill: #1f77b4; stroke: #1f77b4"/>
     <use xlink:href="#m0312465c75" x="646.985915" y="343.146667" style="fill: #1f77b4; stroke: #1f77b4"/>
     <use xlink:href="#m0312465c75" x="659.560563" y="89.28" style="fill: #1f77b4; stroke: #1f77b4"/>
     <use xlink:href="#m0312465c75" x="672.135211" y="343.146667" style="fill: #1f77b4; stroke: #1f77b4"/>
     <use xlink:href="#m0312465c75" x="684.709859" y="373.013333" style="fill: #1f77b4; stroke: #1f77b4"/>
     <use xlink:href="#m0312465c75" x="697.284507" y="402.88" style="fill: #1f77b4; stroke: #1f77b4"/>
     <use xlink:href="#m0312465c75" x="709.859155" y="89.28" style="fill: #1f77b4; stroke: #1f77b4"/>
     <use xlink:href="#m0312465c75" x="722.433803" y="268.48" style="fill: #1f77b4; stroke: #1f77b4"/>
     <use xlink:href="#m0312465c75" x="735.008451" y="313.28" style="fill: #1f77b4; stroke: #1f77b4"/>
     <use xlink:href="#m0312465c75" x="747.583099" y="238.613333" style="fill: #1f77b4; stroke: #1f77b4"/>
     <use xlink:href="#m0312465c75" x="760.157746" y="417.813333" style="fill: #1f77b4; stroke: #1f77b4"/>
     <use xlink:href="#m0312465c75" x="772.732394" y="223.68" style="fill: #1f77b4; stroke: #1f77b4"/>
     <use xlink:href="#m0312465c75" x="785.307042" y="268.48" style="fill: #1f77b4; stroke: #1f77b4"/>
     <use xlink:href="#m0312465c75" x="797.88169" y="298.346667" style="fill: #1f77b4; stroke: #1f77b4"/>
     <use xlink:href="#m0312465c75" x="810.456338" y="343.146667" style="fill: #1f77b4; stroke: #1f77b4"/>
     <use xlink:href="#m0312465c75" x="823.030986" y="223.68" style="fill: #1f77b4; stroke: #1f77b4"/>
     <use xlink:href="#m0312465c75" x="835.605634" y="298.346667" style="fill: #1f77b4; stroke: #1f77b4"/>
     <use xlink:href="#m0312465c75" x="848.180282" y="268.48" style="fill: #1f77b4; stroke: #1f77b4"/>
     <use xlink:href="#m0312465c75" x="860.75493" y="432.746667" style="fill: #1f77b4; stroke: #1f77b4"/>
     <use xlink:href="#m0312465c75" x="873.329577" y="328.213333" style="fill: #1f77b4; stroke: #1f77b4"/>
     <use xlink:href="#m0312465c75" x="885.904225" y="432.746667" style="fill: #1f77b4; stroke: #1f77b4"/>
     <use xlink:href="#m0312465c75" x="898.478873" y="492.48" style="fill: #1f77b4; stroke: #1f77b4"/>
     <use xlink:href="#m0312465c75" x="911.053521" y="373.013333" style="fill: #1f77b4; stroke: #1f77b4"/>
     <use xlink:href="#m0312465c75" x="923.628169" y="119.146667" style="fill: #1f77b4; stroke: #1f77b4"/>
     <use xlink:href="#m0312465c75" x="936.202817" y="328.213333" style="fill: #1f77b4; stroke: #1f77b4"/>
     <use xlink:href="#m0312465c75" x="948.777465" y="402.88" style="fill: #1f77b4; stroke: #1f77b4"/>
     <use xlink:href="#m0312465c75" x="961.352113" y="208.746667" style="fill: #1f77b4; stroke: #1f77b4"/>
     <use xlink:href="#m0312465c75" x="973.926761" y="238.613333" style="fill: #1f77b4; stroke: #1f77b4"/>
     <use xlink:href="#m0312465c75" x="986.501408" y="193.813333" style="fill: #1f77b4; stroke: #1f77b4"/>
     <use xlink:href="#m0312465c75" x="999.076056" y="253.546667" style="fill: #1f77b4; stroke: #1f77b4"/>
     <use xlink:href="#m0312465c75" x="1011.650704" y="178.88" style="fill: #1f77b4; stroke: #1f77b4"/>
     <use xlink:href="#m0312465c75" x="1024.225352" y="238.613333" style="fill: #1f77b4; stroke: #1f77b4"/>
     <use xlink:href="#m0312465c75" x="1036.8" y="193.813333" style="fill: #1f77b4; stroke: #1f77b4"/>
    </g>
   </g>
   <g id="matplotlib.axis_1">
    <g id="xtick_1">
     <g id="line2d_1">
      <defs>
       <path id="m0f06abae48" d="M 0 0 
L 0 3.5 
" style="stroke: #000000; stroke-width: 0.8"/>
      </defs>
      <g>
       <use xlink:href="#m0f06abae48" x="244.364319" y="512.64" style="stroke: #000000; stroke-width: 0.8"/>
      </g>
     </g>
     <g id="text_1">
      <!-- 2022-10-22 00:00:00 -->
      <g transform="translate(180.640569 528.758125) scale(0.12 -0.12)">
       <defs>
        <path id="DejaVuSans-32" d="M 1228 531 
L 3431 531 
L 3431 0 
L 469 0 
L 469 531 
Q 828 903 1448 1529 
Q 2069 2156 2228 2338 
Q 2531 2678 2651 2914 
Q 2772 3150 2772 3378 
Q 2772 3750 2511 3984 
Q 2250 4219 1831 4219 
Q 1534 4219 1204 4116 
Q 875 4013 500 3803 
L 500 4441 
Q 881 4594 1212 4672 
Q 1544 4750 1819 4750 
Q 2544 4750 2975 4387 
Q 3406 4025 3406 3419 
Q 3406 3131 3298 2873 
Q 3191 2616 2906 2266 
Q 2828 2175 2409 1742 
Q 1991 1309 1228 531 
z
" transform="scale(0.015625)"/>
        <path id="DejaVuSans-30" d="M 2034 4250 
Q 1547 4250 1301 3770 
Q 1056 3291 1056 2328 
Q 1056 1369 1301 889 
Q 1547 409 2034 409 
Q 2525 409 2770 889 
Q 3016 1369 3016 2328 
Q 3016 3291 2770 3770 
Q 2525 4250 2034 4250 
z
M 2034 4750 
Q 2819 4750 3233 4129 
Q 3647 3509 3647 2328 
Q 3647 1150 3233 529 
Q 2819 -91 2034 -91 
Q 1250 -91 836 529 
Q 422 1150 422 2328 
Q 422 3509 836 4129 
Q 1250 4750 2034 4750 
z
" transform="scale(0.015625)"/>
        <path id="DejaVuSans-2d" d="M 313 2009 
L 1997 2009 
L 1997 1497 
L 313 1497 
L 313 2009 
z
" transform="scale(0.015625)"/>
        <path id="DejaVuSans-31" d="M 794 531 
L 1825 531 
L 1825 4091 
L 703 3866 
L 703 4441 
L 1819 4666 
L 2450 4666 
L 2450 531 
L 3481 531 
L 3481 0 
L 794 0 
L 794 531 
z
" transform="scale(0.015625)"/>
        <path id="DejaVuSans-20" transform="scale(0.015625)"/>
        <path id="DejaVuSans-3a" d="M 750 794 
L 1409 794 
L 1409 0 
L 750 0 
L 750 794 
z
M 750 3309 
L 1409 3309 
L 1409 2516 
L 750 2516 
L 750 3309 
z
" transform="scale(0.015625)"/>
       </defs>
       <use xlink:href="#DejaVuSans-32"/>
       <use xlink:href="#DejaVuSans-30" x="63.623047"/>
       <use xlink:href="#DejaVuSans-32" x="127.246094"/>
       <use xlink:href="#DejaVuSans-32" x="190.869141"/>
       <use xlink:href="#DejaVuSans-2d" x="254.492188"/>
       <use xlink:href="#DejaVuSans-31" x="290.576172"/>
       <use xlink:href="#DejaVuSans-30" x="354.199219"/>
       <use xlink:href="#DejaVuSans-2d" x="417.822266"/>
       <use xlink:href="#DejaVuSans-32" x="453.90625"/>
       <use xlink:href="#DejaVuSans-32" x="517.529297"/>
       <use xlink:href="#DejaVuSans-20" x="581.152344"/>
       <use xlink:href="#DejaVuSans-30" x="612.939453"/>
       <use xlink:href="#DejaVuSans-30" x="676.5625"/>
       <use xlink:href="#DejaVuSans-3a" x="740.185547"/>
       <use xlink:href="#DejaVuSans-30" x="773.876953"/>
       <use xlink:href="#DejaVuSans-30" x="837.5"/>
       <use xlink:href="#DejaVuSans-3a" x="901.123047"/>
       <use xlink:href="#DejaVuSans-30" x="934.814453"/>
       <use xlink:href="#DejaVuSans-30" x="998.4375"/>
      </g>
     </g>
    </g>
    <g id="xtick_2">
     <g id="line2d_2">
      <g>
       <use xlink:href="#m0f06abae48" x="389.904225" y="512.64" style="stroke: #000000; stroke-width: 0.8"/>
      </g>
     </g>
     <g id="text_2">
      <!-- 2022-10-23 00:00:00 -->
      <g transform="translate(326.180475 528.758125) scale(0.12 -0.12)">
       <defs>
        <path id="DejaVuSans-33" d="M 2597 2516 
Q 3050 2419 3304 2112 
Q 3559 1806 3559 1356 
Q 3559 666 3084 287 
Q 2609 -91 1734 -91 
Q 1441 -91 1130 -33 
Q 819 25 488 141 
L 488 750 
Q 750 597 1062 519 
Q 1375 441 1716 441 
Q 2309 441 2620 675 
Q 2931 909 2931 1356 
Q 2931 1769 2642 2001 
Q 2353 2234 1838 2234 
L 1294 2234 
L 1294 2753 
L 1863 2753 
Q 2328 2753 2575 2939 
Q 2822 3125 2822 3475 
Q 2822 3834 2567 4026 
Q 2313 4219 1838 4219 
Q 1578 4219 1281 4162 
Q 984 4106 628 3988 
L 628 4550 
Q 988 4650 1302 4700 
Q 1616 4750 1894 4750 
Q 2613 4750 3031 4423 
Q 3450 4097 3450 3541 
Q 3450 3153 3228 2886 
Q 3006 2619 2597 2516 
z
" transform="scale(0.015625)"/>
       </defs>
       <use xlink:href="#DejaVuSans-32"/>
       <use xlink:href="#DejaVuSans-30" x="63.623047"/>
       <use xlink:href="#DejaVuSans-32" x="127.246094"/>
       <use xlink:href="#DejaVuSans-32" x="190.869141"/>
       <use xlink:href="#DejaVuSans-2d" x="254.492188"/>
       <use xlink:href="#DejaVuSans-31" x="290.576172"/>
       <use xlink:href="#DejaVuSans-30" x="354.199219"/>
       <use xlink:href="#DejaVuSans-2d" x="417.822266"/>
       <use xlink:href="#DejaVuSans-32" x="453.90625"/>
       <use xlink:href="#DejaVuSans-33" x="517.529297"/>
       <use xlink:href="#DejaVuSans-20" x="581.152344"/>
       <use xlink:href="#DejaVuSans-30" x="612.939453"/>
       <use xlink:href="#DejaVuSans-30" x="676.5625"/>
       <use xlink:href="#DejaVuSans-3a" x="740.185547"/>
       <use xlink:href="#DejaVuSans-30" x="773.876953"/>
       <use xlink:href="#DejaVuSans-30" x="837.5"/>
       <use xlink:href="#DejaVuSans-3a" x="901.123047"/>
       <use xlink:href="#DejaVuSans-30" x="934.814453"/>
       <use xlink:href="#DejaVuSans-30" x="998.4375"/>
      </g>
     </g>
    </g>
    <g id="xtick_3">
     <g id="line2d_3">
      <g>
       <use xlink:href="#m0f06abae48" x="535.444131" y="512.64" style="stroke: #000000; stroke-width: 0.8"/>
      </g>
     </g>
     <g id="text_3">
      <!-- 2022-10-24 00:00:00 -->
      <g transform="translate(471.720381 528.758125) scale(0.12 -0.12)">
       <defs>
        <path id="DejaVuSans-34" d="M 2419 4116 
L 825 1625 
L 2419 1625 
L 2419 4116 
z
M 2253 4666 
L 3047 4666 
L 3047 1625 
L 3713 1625 
L 3713 1100 
L 3047 1100 
L 3047 0 
L 2419 0 
L 2419 1100 
L 313 1100 
L 313 1709 
L 2253 4666 
z
" transform="scale(0.015625)"/>
       </defs>
       <use xlink:href="#DejaVuSans-32"/>
       <use xlink:href="#DejaVuSans-30" x="63.623047"/>
       <use xlink:href="#DejaVuSans-32" x="127.246094"/>
       <use xlink:href="#DejaVuSans-32" x="190.869141"/>
       <use xlink:href="#DejaVuSans-2d" x="254.492188"/>
       <use xlink:href="#DejaVuSans-31" x="290.576172"/>
       <use xlink:href="#DejaVuSans-30" x="354.199219"/>
       <use xlink:href="#DejaVuSans-2d" x="417.822266"/>
       <use xlink:href="#DejaVuSans-32" x="453.90625"/>
       <use xlink:href="#DejaVuSans-34" x="517.529297"/>
       <use xlink:href="#DejaVuSans-20" x="581.152344"/>
       <use xlink:href="#DejaVuSans-30" x="612.939453"/>
       <use xlink:href="#DejaVuSans-30" x="676.5625"/>
       <use xlink:href="#DejaVuSans-3a" x="740.185547"/>
       <use xlink:href="#DejaVuSans-30" x="773.876953"/>
       <use xlink:href="#DejaVuSans-30" x="837.5"/>
       <use xlink:href="#DejaVuSans-3a" x="901.123047"/>
       <use xlink:href="#DejaVuSans-30" x="934.814453"/>
       <use xlink:href="#DejaVuSans-30" x="998.4375"/>
      </g>
     </g>
    </g>
    <g id="xtick_4">
     <g id="line2d_4">
      <g>
       <use xlink:href="#m0f06abae48" x="680.984038" y="512.64" style="stroke: #000000; stroke-width: 0.8"/>
      </g>
     </g>
     <g id="text_4">
      <!-- 2022-10-25 00:00:00 -->
      <g transform="translate(617.260288 528.758125) scale(0.12 -0.12)">
       <defs>
        <path id="DejaVuSans-35" d="M 691 4666 
L 3169 4666 
L 3169 4134 
L 1269 4134 
L 1269 2991 
Q 1406 3038 1543 3061 
Q 1681 3084 1819 3084 
Q 2600 3084 3056 2656 
Q 3513 2228 3513 1497 
Q 3513 744 3044 326 
Q 2575 -91 1722 -91 
Q 1428 -91 1123 -41 
Q 819 9 494 109 
L 494 744 
Q 775 591 1075 516 
Q 1375 441 1709 441 
Q 2250 441 2565 725 
Q 2881 1009 2881 1497 
Q 2881 1984 2565 2268 
Q 2250 2553 1709 2553 
Q 1456 2553 1204 2497 
Q 953 2441 691 2322 
L 691 4666 
z
" transform="scale(0.015625)"/>
       </defs>
       <use xlink:href="#DejaVuSans-32"/>
       <use xlink:href="#DejaVuSans-30" x="63.623047"/>
       <use xlink:href="#DejaVuSans-32" x="127.246094"/>
       <use xlink:href="#DejaVuSans-32" x="190.869141"/>
       <use xlink:href="#DejaVuSans-2d" x="254.492188"/>
       <use xlink:href="#DejaVuSans-31" x="290.576172"/>
       <use xlink:href="#DejaVuSans-30" x="354.199219"/>
       <use xlink:href="#DejaVuSans-2d" x="417.822266"/>
       <use xlink:href="#DejaVuSans-32" x="453.90625"/>
       <use xlink:href="#DejaVuSans-35" x="517.529297"/>
       <use xlink:href="#DejaVuSans-20" x="581.152344"/>
       <use xlink:href="#DejaVuSans-30" x="612.939453"/>
       <use xlink:href="#DejaVuSans-30" x="676.5625"/>
       <use xlink:href="#DejaVuSans-3a" x="740.185547"/>
       <use xlink:href="#DejaVuSans-30" x="773.876953"/>
       <use xlink:href="#DejaVuSans-30" x="837.5"/>
       <use xlink:href="#DejaVuSans-3a" x="901.123047"/>
       <use xlink:href="#DejaVuSans-30" x="934.814453"/>
       <use xlink:href="#DejaVuSans-30" x="998.4375"/>
      </g>
     </g>
    </g>
    <g id="xtick_5">
     <g id="line2d_5">
      <g>
       <use xlink:href="#m0f06abae48" x="826.523944" y="512.64" style="stroke: #000000; stroke-width: 0.8"/>
      </g>
     </g>
     <g id="text_5">
      <!-- 2022-10-26 00:00:00 -->
      <g transform="translate(762.800194 528.758125) scale(0.12 -0.12)">
       <defs>
        <path id="DejaVuSans-36" d="M 2113 2584 
Q 1688 2584 1439 2293 
Q 1191 2003 1191 1497 
Q 1191 994 1439 701 
Q 1688 409 2113 409 
Q 2538 409 2786 701 
Q 3034 994 3034 1497 
Q 3034 2003 2786 2293 
Q 2538 2584 2113 2584 
z
M 3366 4563 
L 3366 3988 
Q 3128 4100 2886 4159 
Q 2644 4219 2406 4219 
Q 1781 4219 1451 3797 
Q 1122 3375 1075 2522 
Q 1259 2794 1537 2939 
Q 1816 3084 2150 3084 
Q 2853 3084 3261 2657 
Q 3669 2231 3669 1497 
Q 3669 778 3244 343 
Q 2819 -91 2113 -91 
Q 1303 -91 875 529 
Q 447 1150 447 2328 
Q 447 3434 972 4092 
Q 1497 4750 2381 4750 
Q 2619 4750 2861 4703 
Q 3103 4656 3366 4563 
z
" transform="scale(0.015625)"/>
       </defs>
       <use xlink:href="#DejaVuSans-32"/>
       <use xlink:href="#DejaVuSans-30" x="63.623047"/>
       <use xlink:href="#DejaVuSans-32" x="127.246094"/>
       <use xlink:href="#DejaVuSans-32" x="190.869141"/>
       <use xlink:href="#DejaVuSans-2d" x="254.492188"/>
       <use xlink:href="#DejaVuSans-31" x="290.576172"/>
       <use xlink:href="#DejaVuSans-30" x="354.199219"/>
       <use xlink:href="#DejaVuSans-2d" x="417.822266"/>
       <use xlink:href="#DejaVuSans-32" x="453.90625"/>
       <use xlink:href="#DejaVuSans-36" x="517.529297"/>
       <use xlink:href="#DejaVuSans-20" x="581.152344"/>
       <use xlink:href="#DejaVuSans-30" x="612.939453"/>
       <use xlink:href="#DejaVuSans-30" x="676.5625"/>
       <use xlink:href="#DejaVuSans-3a" x="740.185547"/>
       <use xlink:href="#DejaVuSans-30" x="773.876953"/>
       <use xlink:href="#DejaVuSans-30" x="837.5"/>
       <use xlink:href="#DejaVuSans-3a" x="901.123047"/>
       <use xlink:href="#DejaVuSans-30" x="934.814453"/>
       <use xlink:href="#DejaVuSans-30" x="998.4375"/>
      </g>
     </g>
    </g>
    <g id="xtick_6">
     <g id="line2d_6">
      <g>
       <use xlink:href="#m0f06abae48" x="972.06385" y="512.64" style="stroke: #000000; stroke-width: 0.8"/>
      </g>
     </g>
     <g id="text_6">
      <!-- 2022-10-27 00:00:00 -->
      <g transform="translate(908.3401 528.758125) scale(0.12 -0.12)">
       <defs>
        <path id="DejaVuSans-37" d="M 525 4666 
L 3525 4666 
L 3525 4397 
L 1831 0 
L 1172 0 
L 2766 4134 
L 525 4134 
L 525 4666 
z
" transform="scale(0.015625)"/>
       </defs>
       <use xlink:href="#DejaVuSans-32"/>
       <use xlink:href="#DejaVuSans-30" x="63.623047"/>
       <use xlink:href="#DejaVuSans-32" x="127.246094"/>
       <use xlink:href="#DejaVuSans-32" x="190.869141"/>
       <use xlink:href="#DejaVuSans-2d" x="254.492188"/>
       <use xlink:href="#DejaVuSans-31" x="290.576172"/>
       <use xlink:href="#DejaVuSans-30" x="354.199219"/>
       <use xlink:href="#DejaVuSans-2d" x="417.822266"/>
       <use xlink:href="#DejaVuSans-32" x="453.90625"/>
       <use xlink:href="#DejaVuSans-37" x="517.529297"/>
       <use xlink:href="#DejaVuSans-20" x="581.152344"/>
       <use xlink:href="#DejaVuSans-30" x="612.939453"/>
       <use xlink:href="#DejaVuSans-30" x="676.5625"/>
       <use xlink:href="#DejaVuSans-3a" x="740.185547"/>
       <use xlink:href="#DejaVuSans-30" x="773.876953"/>
       <use xlink:href="#DejaVuSans-30" x="837.5"/>
       <use xlink:href="#DejaVuSans-3a" x="901.123047"/>
       <use xlink:href="#DejaVuSans-30" x="934.814453"/>
       <use xlink:href="#DejaVuSans-30" x="998.4375"/>
      </g>
     </g>
    </g>
    <g id="text_7">
     <!-- Date -->
     <g transform="translate(578.449219 542.852188) scale(0.1 -0.1)">
      <defs>
       <path id="DejaVuSans-44" d="M 1259 4147 
L 1259 519 
L 2022 519 
Q 2988 519 3436 956 
Q 3884 1394 3884 2338 
Q 3884 3275 3436 3711 
Q 2988 4147 2022 4147 
L 1259 4147 
z
M 628 4666 
L 1925 4666 
Q 3281 4666 3915 4102 
Q 4550 3538 4550 2338 
Q 4550 1131 3912 565 
Q 3275 0 1925 0 
L 628 0 
L 628 4666 
z
" transform="scale(0.015625)"/>
       <path id="DejaVuSans-61" d="M 2194 1759 
Q 1497 1759 1228 1600 
Q 959 1441 959 1056 
Q 959 750 1161 570 
Q 1363 391 1709 391 
Q 2188 391 2477 730 
Q 2766 1069 2766 1631 
L 2766 1759 
L 2194 1759 
z
M 3341 1997 
L 3341 0 
L 2766 0 
L 2766 531 
Q 2569 213 2275 61 
Q 1981 -91 1556 -91 
Q 1019 -91 701 211 
Q 384 513 384 1019 
Q 384 1609 779 1909 
Q 1175 2209 1959 2209 
L 2766 2209 
L 2766 2266 
Q 2766 2663 2505 2880 
Q 2244 3097 1772 3097 
Q 1472 3097 1187 3025 
Q 903 2953 641 2809 
L 641 3341 
Q 956 3463 1253 3523 
Q 1550 3584 1831 3584 
Q 2591 3584 2966 3190 
Q 3341 2797 3341 1997 
z
" transform="scale(0.015625)"/>
       <path id="DejaVuSans-74" d="M 1172 4494 
L 1172 3500 
L 2356 3500 
L 2356 3053 
L 1172 3053 
L 1172 1153 
Q 1172 725 1289 603 
Q 1406 481 1766 481 
L 2356 481 
L 2356 0 
L 1766 0 
Q 1100 0 847 248 
Q 594 497 594 1153 
L 594 3053 
L 172 3053 
L 172 3500 
L 594 3500 
L 594 4494 
L 1172 4494 
z
" transform="scale(0.015625)"/>
       <path id="DejaVuSans-65" d="M 3597 1894 
L 3597 1613 
L 953 1613 
Q 991 1019 1311 708 
Q 1631 397 2203 397 
Q 2534 397 2845 478 
Q 3156 559 3463 722 
L 3463 178 
Q 3153 47 2828 -22 
Q 2503 -91 2169 -91 
Q 1331 -91 842 396 
Q 353 884 353 1716 
Q 353 2575 817 3079 
Q 1281 3584 2069 3584 
Q 2775 3584 3186 3129 
Q 3597 2675 3597 1894 
z
M 3022 2063 
Q 3016 2534 2758 2815 
Q 2500 3097 2075 3097 
Q 1594 3097 1305 2825 
Q 1016 2553 972 2059 
L 3022 2063 
z
" transform="scale(0.015625)"/>
      </defs>
      <use xlink:href="#DejaVuSans-44"/>
      <use xlink:href="#DejaVuSans-61" x="77.001953"/>
      <use xlink:href="#DejaVuSans-74" x="138.28125"/>
      <use xlink:href="#DejaVuSans-65" x="177.490234"/>
     </g>
    </g>
   </g>
   <g id="matplotlib.axis_2">
    <g id="ytick_1">
     <g id="line2d_7">
      <defs>
       <path id="m9c673fee5e" d="M 0 0 
L -3.5 0 
" style="stroke: #000000; stroke-width: 0.8"/>
      </defs>
      <g>
       <use xlink:href="#m9c673fee5e" x="144" y="477.546667" style="stroke: #000000; stroke-width: 0.8"/>
      </g>
     </g>
     <g id="text_8">
      <!-- 10 -->
      <g transform="translate(115.0112 484.111717) scale(0.1728 -0.1728)">
       <use xlink:href="#DejaVuSans-31"/>
       <use xlink:href="#DejaVuSans-30" x="63.623047"/>
      </g>
     </g>
    </g>
    <g id="ytick_2">
     <g id="line2d_8">
      <g>
       <use xlink:href="#m9c673fee5e" x="144" y="402.88" style="stroke: #000000; stroke-width: 0.8"/>
      </g>
     </g>
     <g id="text_9">
      <!-- 15 -->
      <g transform="translate(115.0112 409.44505) scale(0.1728 -0.1728)">
       <use xlink:href="#DejaVuSans-31"/>
       <use xlink:href="#DejaVuSans-35" x="63.623047"/>
      </g>
     </g>
    </g>
    <g id="ytick_3">
     <g id="line2d_9">
      <g>
       <use xlink:href="#m9c673fee5e" x="144" y="328.213333" style="stroke: #000000; stroke-width: 0.8"/>
      </g>
     </g>
     <g id="text_10">
      <!-- 20 -->
      <g transform="translate(115.0112 334.778383) scale(0.1728 -0.1728)">
       <use xlink:href="#DejaVuSans-32"/>
       <use xlink:href="#DejaVuSans-30" x="63.623047"/>
      </g>
     </g>
    </g>
    <g id="ytick_4">
     <g id="line2d_10">
      <g>
       <use xlink:href="#m9c673fee5e" x="144" y="253.546667" style="stroke: #000000; stroke-width: 0.8"/>
      </g>
     </g>
     <g id="text_11">
      <!-- 25 -->
      <g transform="translate(115.0112 260.111717) scale(0.1728 -0.1728)">
       <use xlink:href="#DejaVuSans-32"/>
       <use xlink:href="#DejaVuSans-35" x="63.623047"/>
      </g>
     </g>
    </g>
    <g id="ytick_5">
     <g id="line2d_11">
      <g>
       <use xlink:href="#m9c673fee5e" x="144" y="178.88" style="stroke: #000000; stroke-width: 0.8"/>
      </g>
     </g>
     <g id="text_12">
      <!-- 30 -->
      <g transform="translate(115.0112 185.44505) scale(0.1728 -0.1728)">
       <use xlink:href="#DejaVuSans-33"/>
       <use xlink:href="#DejaVuSans-30" x="63.623047"/>
      </g>
     </g>
    </g>
    <g id="ytick_6">
     <g id="line2d_12">
      <g>
       <use xlink:href="#m9c673fee5e" x="144" y="104.213333" style="stroke: #000000; stroke-width: 0.8"/>
      </g>
     </g>
     <g id="text_13">
      <!-- 35 -->
      <g transform="translate(115.0112 110.778383) scale(0.1728 -0.1728)">
       <use xlink:href="#DejaVuSans-33"/>
       <use xlink:href="#DejaVuSans-35" x="63.623047"/>
      </g>
     </g>
    </g>
    <g id="text_14">
     <!-- % of Reports -->
     <g transform="translate(108.931512 322.808125) rotate(-90) scale(0.1 -0.1)">
      <defs>
       <path id="DejaVuSans-25" d="M 4653 2053 
Q 4381 2053 4226 1822 
Q 4072 1591 4072 1178 
Q 4072 772 4226 539 
Q 4381 306 4653 306 
Q 4919 306 5073 539 
Q 5228 772 5228 1178 
Q 5228 1588 5073 1820 
Q 4919 2053 4653 2053 
z
M 4653 2450 
Q 5147 2450 5437 2106 
Q 5728 1763 5728 1178 
Q 5728 594 5436 251 
Q 5144 -91 4653 -91 
Q 4153 -91 3862 251 
Q 3572 594 3572 1178 
Q 3572 1766 3864 2108 
Q 4156 2450 4653 2450 
z
M 1428 4353 
Q 1159 4353 1004 4120 
Q 850 3888 850 3481 
Q 850 3069 1003 2837 
Q 1156 2606 1428 2606 
Q 1700 2606 1854 2837 
Q 2009 3069 2009 3481 
Q 2009 3884 1853 4118 
Q 1697 4353 1428 4353 
z
M 4250 4750 
L 4750 4750 
L 1831 -91 
L 1331 -91 
L 4250 4750 
z
M 1428 4750 
Q 1922 4750 2215 4408 
Q 2509 4066 2509 3481 
Q 2509 2891 2217 2550 
Q 1925 2209 1428 2209 
Q 931 2209 642 2551 
Q 353 2894 353 3481 
Q 353 4063 643 4406 
Q 934 4750 1428 4750 
z
" transform="scale(0.015625)"/>
       <path id="DejaVuSans-6f" d="M 1959 3097 
Q 1497 3097 1228 2736 
Q 959 2375 959 1747 
Q 959 1119 1226 758 
Q 1494 397 1959 397 
Q 2419 397 2687 759 
Q 2956 1122 2956 1747 
Q 2956 2369 2687 2733 
Q 2419 3097 1959 3097 
z
M 1959 3584 
Q 2709 3584 3137 3096 
Q 3566 2609 3566 1747 
Q 3566 888 3137 398 
Q 2709 -91 1959 -91 
Q 1206 -91 779 398 
Q 353 888 353 1747 
Q 353 2609 779 3096 
Q 1206 3584 1959 3584 
z
" transform="scale(0.015625)"/>
       <path id="DejaVuSans-66" d="M 2375 4863 
L 2375 4384 
L 1825 4384 
Q 1516 4384 1395 4259 
Q 1275 4134 1275 3809 
L 1275 3500 
L 2222 3500 
L 2222 3053 
L 1275 3053 
L 1275 0 
L 697 0 
L 697 3053 
L 147 3053 
L 147 3500 
L 697 3500 
L 697 3744 
Q 697 4328 969 4595 
Q 1241 4863 1831 4863 
L 2375 4863 
z
" transform="scale(0.015625)"/>
       <path id="DejaVuSans-52" d="M 2841 2188 
Q 3044 2119 3236 1894 
Q 3428 1669 3622 1275 
L 4263 0 
L 3584 0 
L 2988 1197 
Q 2756 1666 2539 1819 
Q 2322 1972 1947 1972 
L 1259 1972 
L 1259 0 
L 628 0 
L 628 4666 
L 2053 4666 
Q 2853 4666 3247 4331 
Q 3641 3997 3641 3322 
Q 3641 2881 3436 2590 
Q 3231 2300 2841 2188 
z
M 1259 4147 
L 1259 2491 
L 2053 2491 
Q 2509 2491 2742 2702 
Q 2975 2913 2975 3322 
Q 2975 3731 2742 3939 
Q 2509 4147 2053 4147 
L 1259 4147 
z
" transform="scale(0.015625)"/>
       <path id="DejaVuSans-70" d="M 1159 525 
L 1159 -1331 
L 581 -1331 
L 581 3500 
L 1159 3500 
L 1159 2969 
Q 1341 3281 1617 3432 
Q 1894 3584 2278 3584 
Q 2916 3584 3314 3078 
Q 3713 2572 3713 1747 
Q 3713 922 3314 415 
Q 2916 -91 2278 -91 
Q 1894 -91 1617 61 
Q 1341 213 1159 525 
z
M 3116 1747 
Q 3116 2381 2855 2742 
Q 2594 3103 2138 3103 
Q 1681 3103 1420 2742 
Q 1159 2381 1159 1747 
Q 1159 1113 1420 752 
Q 1681 391 2138 391 
Q 2594 391 2855 752 
Q 3116 1113 3116 1747 
z
" transform="scale(0.015625)"/>
       <path id="DejaVuSans-72" d="M 2631 2963 
Q 2534 3019 2420 3045 
Q 2306 3072 2169 3072 
Q 1681 3072 1420 2755 
Q 1159 2438 1159 1844 
L 1159 0 
L 581 0 
L 581 3500 
L 1159 3500 
L 1159 2956 
Q 1341 3275 1631 3429 
Q 1922 3584 2338 3584 
Q 2397 3584 2469 3576 
Q 2541 3569 2628 3553 
L 2631 2963 
z
" transform="scale(0.015625)"/>
       <path id="DejaVuSans-73" d="M 2834 3397 
L 2834 2853 
Q 2591 2978 2328 3040 
Q 2066 3103 1784 3103 
Q 1356 3103 1142 2972 
Q 928 2841 928 2578 
Q 928 2378 1081 2264 
Q 1234 2150 1697 2047 
L 1894 2003 
Q 2506 1872 2764 1633 
Q 3022 1394 3022 966 
Q 3022 478 2636 193 
Q 2250 -91 1575 -91 
Q 1294 -91 989 -36 
Q 684 19 347 128 
L 347 722 
Q 666 556 975 473 
Q 1284 391 1588 391 
Q 1994 391 2212 530 
Q 2431 669 2431 922 
Q 2431 1156 2273 1281 
Q 2116 1406 1581 1522 
L 1381 1569 
Q 847 1681 609 1914 
Q 372 2147 372 2553 
Q 372 3047 722 3315 
Q 1072 3584 1716 3584 
Q 2034 3584 2315 3537 
Q 2597 3491 2834 3397 
z
" transform="scale(0.015625)"/>
      </defs>
      <use xlink:href="#DejaVuSans-25"/>
      <use xlink:href="#DejaVuSans-20" x="95.019531"/>
      <use xlink:href="#DejaVuSans-6f" x="126.806641"/>
      <use xlink:href="#DejaVuSans-66" x="187.988281"/>
      <use xlink:href="#DejaVuSans-20" x="223.193359"/>
      <use xlink:href="#DejaVuSans-52" x="254.980469"/>
      <use xlink:href="#DejaVuSans-65" x="319.962891"/>
      <use xlink:href="#DejaVuSans-70" x="381.486328"/>
      <use xlink:href="#DejaVuSans-6f" x="444.962891"/>
      <use xlink:href="#DejaVuSans-72" x="506.144531"/>
      <use xlink:href="#DejaVuSans-74" x="547.257812"/>
      <use xlink:href="#DejaVuSans-73" x="586.466797"/>
     </g>
    </g>
   </g>
   <g id="line2d_13">
    <path d="M 144 322.24 
L 156.574648 322.24 
L 169.149296 322.24 
L 181.723944 322.24 
L 194.298592 322.24 
L 206.873239 322.24 
L 219.447887 322.24 
L 232.022535 322.24 
L 244.597183 322.24 
L 257.171831 322.24 
L 269.746479 322.24 
L 282.321127 322.24 
L 294.895775 322.24 
L 307.470423 322.24 
L 320.04507 322.24 
L 332.619718 322.24 
L 345.194366 322.24 
L 357.769014 322.24 
L 370.343662 322.24 
L 382.91831 322.24 
L 395.492958 322.24 
L 408.067606 322.24 
L 420.642254 322.24 
L 433.216901 322.24 
L 445.791549 322.24 
L 458.366197 322.24 
L 470.940845 322.24 
L 483.515493 322.24 
L 496.090141 322.24 
L 508.664789 322.24 
L 521.239437 322.24 
L 533.814085 322.24 
L 546.388732 322.24 
L 558.96338 322.24 
L 571.538028 322.24 
L 584.112676 322.24 
L 596.687324 322.24 
L 609.261972 322.24 
L 621.83662 322.24 
L 634.411268 322.24 
L 646.985915 322.24 
L 659.560563 322.24 
L 672.135211 322.24 
L 684.709859 322.24 
L 697.284507 322.24 
L 709.859155 322.24 
L 722.433803 322.24 
L 735.008451 322.24 
L 747.583099 322.24 
L 760.157746 322.24 
L 772.732394 322.24 
L 785.307042 322.24 
L 797.88169 322.24 
L 810.456338 322.24 
L 823.030986 322.24 
L 835.605634 322.24 
L 848.180282 322.24 
L 860.75493 322.24 
L 873.329577 322.24 
L 885.904225 322.24 
L 898.478873 322.24 
L 911.053521 322.24 
L 923.628169 322.24 
L 936.202817 322.24 
L 948.777465 322.24 
L 961.352113 322.24 
L 973.926761 322.24 
L 986.501408 322.24 
L 999.076056 322.24 
L 1011.650704 322.24 
L 1024.225352 322.24 
L 1036.8 322.24 
" clip-path="url(#pfb8e1c069c)" style="fill: none; stroke: #1f77b4; stroke-width: 2.5; stroke-linecap: square"/>
   </g>
   <g id="line2d_14">
    <path d="M 144 260.797016 
L 156.574648 260.744385 
L 169.149296 260.691754 
L 181.723944 260.639122 
L 194.298592 260.586491 
L 206.873239 260.533859 
L 219.447887 260.481228 
L 232.022535 260.428597 
L 244.597183 260.375965 
L 257.171831 260.323334 
L 269.746479 260.270703 
L 282.321127 260.218071 
L 294.895775 260.16544 
L 307.470423 260.112808 
L 320.04507 260.060177 
L 332.619718 260.007546 
L 345.194366 259.954914 
L 357.769014 259.902283 
L 370.343662 259.849651 
L 382.91831 259.79702 
L 395.492958 259.744389 
L 408.067606 259.691757 
L 420.642254 259.639126 
L 433.216901 259.586495 
L 445.791549 259.533863 
L 458.366197 259.481232 
L 470.940845 259.4286 
L 483.515493 259.375969 
L 496.090141 259.323338 
L 508.664789 259.270706 
L 521.239437 259.218075 
L 533.814085 259.165444 
L 546.388732 259.112812 
L 558.96338 259.060181 
L 571.538028 259.007549 
L 584.112676 258.954918 
L 596.687324 258.902287 
L 609.261972 258.849655 
L 621.83662 258.797024 
L 634.411268 258.744393 
L 646.985915 258.691761 
L 659.560563 258.63913 
L 672.135211 258.586498 
L 684.709859 258.533867 
L 697.284507 258.481236 
L 709.859155 258.428604 
L 722.433803 258.375973 
L 735.008451 258.323341 
L 747.583099 258.27071 
L 760.157746 258.218079 
L 772.732394 258.165447 
L 785.307042 258.112816 
L 797.88169 258.060185 
L 810.456338 258.007553 
L 823.030986 257.954922 
L 835.605634 257.90229 
L 848.180282 257.849659 
L 860.75493 257.797028 
L 873.329577 257.744396 
L 885.904225 257.691765 
L 898.478873 257.639134 
L 911.053521 257.586502 
L 923.628169 257.533871 
L 936.202817 257.481239 
L 948.777465 257.428608 
L 961.352113 257.375977 
L 973.926761 257.323345 
L 986.501408 257.270714 
L 999.076056 257.218083 
L 1011.650704 257.165451 
L 1024.225352 257.11282 
L 1036.8 257.060188 
" clip-path="url(#pfb8e1c069c)" style="fill: none; stroke: #ff7f0e; stroke-width: 2.5; stroke-linecap: square"/>
   </g>
   <g id="line2d_15">
    <path d="M 144 266.472554 
L 156.574648 266.459336 
L 169.149296 266.446118 
L 181.723944 266.4329 
L 194.298592 266.419682 
L 206.873239 266.406464 
L 219.447887 266.393246 
L 232.022535 266.380028 
L 244.597183 266.36681 
L 257.171831 266.353592 
L 269.746479 266.340374 
L 282.321127 266.327156 
L 294.895775 266.313938 
L 307.470423 266.300721 
L 320.04507 266.287503 
L 332.619718 266.274285 
L 345.194366 266.261067 
L 357.769014 266.247849 
L 370.343662 266.234631 
L 382.91831 266.221413 
L 395.492958 266.208195 
L 408.067606 266.194977 
L 420.642254 266.181759 
L 433.216901 266.168541 
L 445.791549 266.155323 
L 458.366197 266.142105 
L 470.940845 266.128888 
L 483.515493 266.11567 
L 496.090141 266.102452 
L 508.664789 266.089234 
L 521.239437 266.076016 
L 533.814085 266.062798 
L 546.388732 266.04958 
L 558.96338 266.036362 
L 571.538028 266.023144 
L 584.112676 266.009926 
L 596.687324 265.996708 
L 609.261972 265.98349 
L 621.83662 265.970272 
L 634.411268 265.957054 
L 646.985915 265.943837 
L 659.560563 265.930619 
L 672.135211 265.917401 
L 684.709859 265.904183 
L 697.284507 265.890965 
L 709.859155 265.877747 
L 722.433803 265.864529 
L 735.008451 265.851311 
L 747.583099 265.838093 
L 760.157746 265.824875 
L 772.732394 265.811657 
L 785.307042 265.798439 
L 797.88169 265.785221 
L 810.456338 265.772004 
L 823.030986 265.758786 
L 835.605634 265.745568 
L 848.180282 265.73235 
L 860.75493 265.719132 
L 873.329577 265.705914 
L 885.904225 265.692696 
L 898.478873 265.679478 
L 911.053521 265.66626 
L 923.628169 265.653042 
L 936.202817 265.639824 
L 948.777465 265.626606 
L 961.352113 265.613388 
L 973.926761 265.60017 
L 986.501408 265.586953 
L 999.076056 265.573735 
L 1011.650704 265.560517 
L 1024.225352 265.547299 
L 1036.8 265.534081 
" clip-path="url(#pfb8e1c069c)" style="fill: none; stroke: #2ca02c; stroke-width: 2.5; stroke-linecap: square"/>
   </g>
   <g id="line2d_16">
    <path d="M 144 260.79702 
L 156.574648 260.744389 
L 169.149296 260.691757 
L 181.723944 260.639126 
L 194.298592 260.586495 
L 206.873239 260.533863 
L 219.447887 260.481232 
L 232.022535 260.4286 
L 244.597183 260.375969 
L 257.171831 260.323338 
L 269.746479 260.270706 
L 282.321127 260.218075 
L 294.895775 260.165444 
L 307.470423 260.112812 
L 320.04507 260.060181 
L 332.619718 260.00755 
L 345.194366 259.954918 
L 357.769014 259.902287 
L 370.343662 259.849656 
L 382.91831 259.797024 
L 395.492958 259.744393 
L 408.067606 259.691762 
L 420.642254 259.63913 
L 433.216901 259.586499 
L 445.791549 259.533867 
L 458.366197 259.481236 
L 470.940845 259.428605 
L 483.515493 259.375973 
L 496.090141 259.323342 
L 508.664789 259.270711 
L 521.239437 259.218079 
L 533.814085 259.165448 
L 546.388732 259.112817 
L 558.96338 259.060185 
L 571.538028 259.007554 
L 584.112676 258.954923 
L 596.687324 258.902291 
L 609.261972 258.84966 
L 621.83662 258.797028 
L 634.411268 258.744397 
L 646.985915 258.691766 
L 659.560563 258.639134 
L 672.135211 258.586503 
L 684.709859 258.533872 
L 697.284507 258.48124 
L 709.859155 258.428609 
L 722.433803 258.375978 
L 735.008451 258.323346 
L 747.583099 258.270715 
L 760.157746 258.218084 
L 772.732394 258.165452 
L 785.307042 258.112821 
L 797.88169 258.06019 
L 810.456338 258.007558 
L 823.030986 257.954927 
L 835.605634 257.902295 
L 848.180282 257.849664 
L 860.75493 257.797033 
L 873.329577 257.744401 
L 885.904225 257.69177 
L 898.478873 257.639139 
L 911.053521 257.586507 
L 923.628169 257.533876 
L 936.202817 257.481245 
L 948.777465 257.428613 
L 961.352113 257.375982 
L 973.926761 257.323351 
L 986.501408 257.270719 
L 999.076056 257.218088 
L 1011.650704 257.165456 
L 1024.225352 257.112825 
L 1036.8 257.060194 
" clip-path="url(#pfb8e1c069c)" style="fill: none; stroke: #d62728; stroke-width: 2.5; stroke-linecap: square"/>
   </g>
   <g id="line2d_17">
    <path d="M 144 260.797018 
L 156.574648 260.744387 
L 169.149296 260.691755 
L 181.723944 260.639124 
L 194.298592 260.586493 
L 206.873239 260.533861 
L 219.447887 260.48123 
L 232.022535 260.428599 
L 244.597183 260.375967 
L 257.171831 260.323336 
L 269.746479 260.270704 
L 282.321127 260.218073 
L 294.895775 260.165442 
L 307.470423 260.11281 
L 320.04507 260.060179 
L 332.619718 260.007548 
L 345.194366 259.954916 
L 357.769014 259.902285 
L 370.343662 259.849654 
L 382.91831 259.797022 
L 395.492958 259.744391 
L 408.067606 259.691759 
L 420.642254 259.639128 
L 433.216901 259.586497 
L 445.791549 259.533865 
L 458.366197 259.481234 
L 470.940845 259.428603 
L 483.515493 259.375971 
L 496.090141 259.32334 
L 508.664789 259.270708 
L 521.239437 259.218077 
L 533.814085 259.165446 
L 546.388732 259.112814 
L 558.96338 259.060183 
L 571.538028 259.007552 
L 584.112676 258.95492 
L 596.687324 258.902289 
L 609.261972 258.849658 
L 621.83662 258.797026 
L 634.411268 258.744395 
L 646.985915 258.691763 
L 659.560563 258.639132 
L 672.135211 258.586501 
L 684.709859 258.533869 
L 697.284507 258.481238 
L 709.859155 258.428607 
L 722.433803 258.375975 
L 735.008451 258.323344 
L 747.583099 258.270713 
L 760.157746 258.218081 
L 772.732394 258.16545 
L 785.307042 258.112818 
L 797.88169 258.060187 
L 810.456338 258.007556 
L 823.030986 257.954924 
L 835.605634 257.902293 
L 848.180282 257.849662 
L 860.75493 257.79703 
L 873.329577 257.744399 
L 885.904225 257.691767 
L 898.478873 257.639136 
L 911.053521 257.586505 
L 923.628169 257.533873 
L 936.202817 257.481242 
L 948.777465 257.428611 
L 961.352113 257.375979 
L 973.926761 257.323348 
L 986.501408 257.270717 
L 999.076056 257.218085 
L 1011.650704 257.165454 
L 1024.225352 257.112822 
L 1036.8 257.060191 
" clip-path="url(#pfb8e1c069c)" style="fill: none; stroke: #9467bd; stroke-width: 2.5; stroke-linecap: square"/>
   </g>
   <g id="line2d_18">
    <path d="M 144 300.093738 
L 156.574648 300.093738 
L 169.149296 300.093738 
L 181.723944 300.093738 
L 194.298592 300.093738 
L 206.873239 300.093738 
L 219.447887 300.093738 
L 232.022535 300.093738 
L 244.597183 300.093738 
L 257.171831 300.093738 
L 269.746479 300.093738 
L 282.321127 300.093738 
L 294.895775 300.093738 
L 307.470423 300.093738 
L 320.04507 300.093738 
L 332.619718 300.093738 
L 345.194366 300.093738 
L 357.769014 300.093738 
L 370.343662 300.093738 
L 382.91831 300.093738 
L 395.492958 300.093738 
L 408.067606 300.093738 
L 420.642254 300.093738 
L 433.216901 300.093738 
L 445.791549 300.093738 
L 458.366197 300.093738 
L 470.940845 300.093738 
L 483.515493 300.093738 
L 496.090141 300.093738 
L 508.664789 300.093738 
L 521.239437 300.093738 
L 533.814085 300.093738 
L 546.388732 300.093738 
L 558.96338 300.093738 
L 571.538028 300.093738 
L 584.112676 300.093738 
L 596.687324 300.093738 
L 609.261972 300.093738 
L 621.83662 300.093738 
L 634.411268 300.093738 
L 646.985915 300.093738 
L 659.560563 300.093738 
L 672.135211 300.093738 
L 684.709859 300.093738 
L 697.284507 300.093738 
L 709.859155 300.093738 
L 722.433803 300.093738 
L 735.008451 300.093738 
L 747.583099 300.093738 
L 760.157746 300.093738 
L 772.732394 300.093738 
L 785.307042 300.093738 
L 797.88169 300.093738 
L 810.456338 300.093738 
L 823.030986 300.093738 
L 835.605634 300.093738 
L 848.180282 300.093738 
L 860.75493 300.093738 
L 873.329577 300.093738 
L 885.904225 300.093738 
L 898.478873 300.093738 
L 911.053521 300.093738 
L 923.628169 300.093738 
L 936.202817 300.093738 
L 948.777465 300.093738 
L 961.352113 300.093738 
L 973.926761 300.093738 
L 986.501408 300.093738 
L 999.076056 300.093738 
L 1011.650704 300.093738 
L 1024.225352 300.093738 
L 1036.8 300.093738 
" clip-path="url(#pfb8e1c069c)" style="fill: none; stroke: #8c564b; stroke-width: 2.5; stroke-linecap: square"/>
   </g>
   <g id="line2d_19">
    <path d="M 144 322.24 
L 156.574648 322.24 
L 169.149296 322.24 
L 181.723944 322.24 
L 194.298592 322.24 
L 206.873239 322.24 
L 219.447887 322.24 
L 232.022535 322.24 
L 244.597183 322.24 
L 257.171831 322.24 
L 269.746479 322.24 
L 282.321127 322.24 
L 294.895775 322.24 
L 307.470423 322.24 
L 320.04507 322.24 
L 332.619718 322.24 
L 345.194366 322.24 
L 357.769014 322.24 
L 370.343662 322.24 
L 382.91831 322.24 
L 395.492958 322.24 
L 408.067606 322.24 
L 420.642254 322.24 
L 433.216901 322.24 
L 445.791549 322.24 
L 458.366197 322.24 
L 470.940845 322.24 
L 483.515493 322.24 
L 496.090141 322.24 
L 508.664789 322.24 
L 521.239437 322.24 
L 533.814085 322.24 
L 546.388732 322.24 
L 558.96338 322.24 
L 571.538028 322.24 
L 584.112676 322.24 
L 596.687324 322.24 
L 609.261972 322.24 
L 621.83662 322.24 
L 634.411268 322.24 
L 646.985915 322.24 
L 659.560563 322.24 
L 672.135211 322.24 
L 684.709859 322.24 
L 697.284507 322.24 
L 709.859155 322.24 
L 722.433803 322.24 
L 735.008451 322.24 
L 747.583099 322.24 
L 760.157746 322.24 
L 772.732394 322.24 
L 785.307042 322.24 
L 797.88169 322.24 
L 810.456338 322.24 
L 823.030986 322.24 
L 835.605634 322.24 
L 848.180282 322.24 
L 860.75493 322.24 
L 873.329577 322.24 
L 885.904225 322.24 
L 898.478873 322.24 
L 911.053521 322.24 
L 923.628169 322.24 
L 936.202817 322.24 
L 948.777465 322.24 
L 961.352113 322.24 
L 973.926761 322.24 
L 986.501408 322.24 
L 999.076056 322.24 
L 1011.650704 322.24 
L 1024.225352 322.24 
L 1036.8 322.24 
" clip-path="url(#pfb8e1c069c)" style="fill: none; stroke: #e377c2; stroke-width: 2.5; stroke-linecap: square"/>
   </g>
   <g id="line2d_20">
    <path d="M 144 290.346301 
L 156.574648 290.346301 
L 169.149296 290.346301 
L 181.723944 290.346301 
L 194.298592 290.346301 
L 206.873239 290.346301 
L 219.447887 290.346301 
L 232.022535 290.346301 
L 244.597183 290.346301 
L 257.171831 290.346301 
L 269.746479 290.346301 
L 282.321127 290.346301 
L 294.895775 290.346301 
L 307.470423 290.346301 
L 320.04507 290.346301 
L 332.619718 290.346301 
L 345.194366 290.346301 
L 357.769014 290.346301 
L 370.343662 290.346301 
L 382.91831 290.346301 
L 395.492958 290.346301 
L 408.067606 290.346301 
L 420.642254 290.346301 
L 433.216901 290.346301 
L 445.791549 290.346301 
L 458.366197 290.346301 
L 470.940845 290.346301 
L 483.515493 290.346301 
L 496.090141 290.346301 
L 508.664789 290.346301 
L 521.239437 290.346301 
L 533.814085 290.346301 
L 546.388732 290.346301 
L 558.96338 290.346301 
L 571.538028 290.346301 
L 584.112676 290.346301 
L 596.687324 290.346301 
L 609.261972 290.346301 
L 621.83662 290.346301 
L 634.411268 290.346301 
L 646.985915 290.346301 
L 659.560563 290.346301 
L 672.135211 290.346301 
L 684.709859 290.346301 
L 697.284507 290.346301 
L 709.859155 290.346301 
L 722.433803 290.346301 
L 735.008451 290.346301 
L 747.583099 290.346301 
L 760.157746 290.346301 
L 772.732394 290.346301 
L 785.307042 290.346301 
L 797.88169 290.346301 
L 810.456338 290.346301 
L 823.030986 290.346301 
L 835.605634 290.346301 
L 848.180282 290.346301 
L 860.75493 290.346301 
L 873.329577 290.346301 
L 885.904225 290.346301 
L 898.478873 290.346301 
L 911.053521 290.346301 
L 923.628169 290.346301 
L 936.202817 290.346301 
L 948.777465 290.346301 
L 961.352113 290.346301 
L 973.926761 290.346301 
L 986.501408 290.346301 
L 999.076056 290.346301 
L 1011.650704 290.346301 
L 1024.225352 290.346301 
L 1036.8 290.346301 
" clip-path="url(#pfb8e1c069c)" style="fill: none; stroke: #7f7f7f; stroke-width: 2.5; stroke-linecap: square"/>
   </g>
   <g id="line2d_21">
    <path d="M 144 284.657778 
L 156.574648 284.657778 
L 169.149296 284.657778 
L 181.723944 284.657778 
L 194.298592 284.657778 
L 206.873239 284.657778 
L 219.447887 284.657778 
L 232.022535 284.657778 
L 244.597183 284.657778 
L 257.171831 284.657778 
L 269.746479 284.657778 
L 282.321127 284.657778 
L 294.895775 284.657778 
L 307.470423 284.657778 
L 320.04507 284.657778 
L 332.619718 284.657778 
L 345.194366 284.657778 
L 357.769014 284.657778 
L 370.343662 284.657778 
L 382.91831 284.657778 
L 395.492958 284.657778 
L 408.067606 284.657778 
L 420.642254 284.657778 
L 433.216901 284.657778 
L 445.791549 284.657778 
L 458.366197 284.657778 
L 470.940845 284.657778 
L 483.515493 284.657778 
L 496.090141 284.657778 
L 508.664789 284.657778 
L 521.239437 284.657778 
L 533.814085 284.657778 
L 546.388732 284.657778 
L 558.96338 284.657778 
L 571.538028 284.657778 
L 584.112676 284.657778 
L 596.687324 284.657778 
L 609.261972 284.657778 
L 621.83662 284.657778 
L 634.411268 284.657778 
L 646.985915 284.657778 
L 659.560563 284.657778 
L 672.135211 284.657778 
L 684.709859 284.657778 
L 697.284507 284.657778 
L 709.859155 284.657778 
L 722.433803 284.657778 
L 735.008451 284.657778 
L 747.583099 284.657778 
L 760.157746 284.657778 
L 772.732394 284.657778 
L 785.307042 284.657778 
L 797.88169 284.657778 
L 810.456338 284.657778 
L 823.030986 284.657778 
L 835.605634 284.657778 
L 848.180282 284.657778 
L 860.75493 284.657778 
L 873.329577 284.657778 
L 885.904225 284.657778 
L 898.478873 284.657778 
L 911.053521 284.657778 
L 923.628169 284.657778 
L 936.202817 284.657778 
L 948.777465 284.657778 
L 961.352113 284.657778 
L 973.926761 284.657778 
L 986.501408 284.657778 
L 999.076056 284.657778 
L 1011.650704 284.657778 
L 1024.225352 284.657778 
L 1036.8 284.657778 
" clip-path="url(#pfb8e1c069c)" style="fill: none; stroke: #bcbd22; stroke-width: 2.5; stroke-linecap: square"/>
   </g>
   <g id="patch_3">
    <path d="M 144 512.64 
L 144 69.12 
" style="fill: none; stroke: #000000; stroke-width: 0.8; stroke-linejoin: miter; stroke-linecap: square"/>
   </g>
   <g id="patch_4">
    <path d="M 144 512.64 
L 1036.8 512.64 
" style="fill: none; stroke: #000000; stroke-width: 0.8; stroke-linejoin: miter; stroke-linecap: square"/>
   </g>
   <g id="text_15">
    <!-- Model Prediction: % of Games that ended in 5th Try Over Time -->
    <g transform="translate(402.770625 63.12) scale(0.12 -0.12)">
     <defs>
      <path id="DejaVuSans-4d" d="M 628 4666 
L 1569 4666 
L 2759 1491 
L 3956 4666 
L 4897 4666 
L 4897 0 
L 4281 0 
L 4281 4097 
L 3078 897 
L 2444 897 
L 1241 4097 
L 1241 0 
L 628 0 
L 628 4666 
z
" transform="scale(0.015625)"/>
      <path id="DejaVuSans-64" d="M 2906 2969 
L 2906 4863 
L 3481 4863 
L 3481 0 
L 2906 0 
L 2906 525 
Q 2725 213 2448 61 
Q 2172 -91 1784 -91 
Q 1150 -91 751 415 
Q 353 922 353 1747 
Q 353 2572 751 3078 
Q 1150 3584 1784 3584 
Q 2172 3584 2448 3432 
Q 2725 3281 2906 2969 
z
M 947 1747 
Q 947 1113 1208 752 
Q 1469 391 1925 391 
Q 2381 391 2643 752 
Q 2906 1113 2906 1747 
Q 2906 2381 2643 2742 
Q 2381 3103 1925 3103 
Q 1469 3103 1208 2742 
Q 947 2381 947 1747 
z
" transform="scale(0.015625)"/>
      <path id="DejaVuSans-6c" d="M 603 4863 
L 1178 4863 
L 1178 0 
L 603 0 
L 603 4863 
z
" transform="scale(0.015625)"/>
      <path id="DejaVuSans-50" d="M 1259 4147 
L 1259 2394 
L 2053 2394 
Q 2494 2394 2734 2622 
Q 2975 2850 2975 3272 
Q 2975 3691 2734 3919 
Q 2494 4147 2053 4147 
L 1259 4147 
z
M 628 4666 
L 2053 4666 
Q 2838 4666 3239 4311 
Q 3641 3956 3641 3272 
Q 3641 2581 3239 2228 
Q 2838 1875 2053 1875 
L 1259 1875 
L 1259 0 
L 628 0 
L 628 4666 
z
" transform="scale(0.015625)"/>
      <path id="DejaVuSans-69" d="M 603 3500 
L 1178 3500 
L 1178 0 
L 603 0 
L 603 3500 
z
M 603 4863 
L 1178 4863 
L 1178 4134 
L 603 4134 
L 603 4863 
z
" transform="scale(0.015625)"/>
      <path id="DejaVuSans-63" d="M 3122 3366 
L 3122 2828 
Q 2878 2963 2633 3030 
Q 2388 3097 2138 3097 
Q 1578 3097 1268 2742 
Q 959 2388 959 1747 
Q 959 1106 1268 751 
Q 1578 397 2138 397 
Q 2388 397 2633 464 
Q 2878 531 3122 666 
L 3122 134 
Q 2881 22 2623 -34 
Q 2366 -91 2075 -91 
Q 1284 -91 818 406 
Q 353 903 353 1747 
Q 353 2603 823 3093 
Q 1294 3584 2113 3584 
Q 2378 3584 2631 3529 
Q 2884 3475 3122 3366 
z
" transform="scale(0.015625)"/>
      <path id="DejaVuSans-6e" d="M 3513 2113 
L 3513 0 
L 2938 0 
L 2938 2094 
Q 2938 2591 2744 2837 
Q 2550 3084 2163 3084 
Q 1697 3084 1428 2787 
Q 1159 2491 1159 1978 
L 1159 0 
L 581 0 
L 581 3500 
L 1159 3500 
L 1159 2956 
Q 1366 3272 1645 3428 
Q 1925 3584 2291 3584 
Q 2894 3584 3203 3211 
Q 3513 2838 3513 2113 
z
" transform="scale(0.015625)"/>
      <path id="DejaVuSans-47" d="M 3809 666 
L 3809 1919 
L 2778 1919 
L 2778 2438 
L 4434 2438 
L 4434 434 
Q 4069 175 3628 42 
Q 3188 -91 2688 -91 
Q 1594 -91 976 548 
Q 359 1188 359 2328 
Q 359 3472 976 4111 
Q 1594 4750 2688 4750 
Q 3144 4750 3555 4637 
Q 3966 4525 4313 4306 
L 4313 3634 
Q 3963 3931 3569 4081 
Q 3175 4231 2741 4231 
Q 1884 4231 1454 3753 
Q 1025 3275 1025 2328 
Q 1025 1384 1454 906 
Q 1884 428 2741 428 
Q 3075 428 3337 486 
Q 3600 544 3809 666 
z
" transform="scale(0.015625)"/>
      <path id="DejaVuSans-6d" d="M 3328 2828 
Q 3544 3216 3844 3400 
Q 4144 3584 4550 3584 
Q 5097 3584 5394 3201 
Q 5691 2819 5691 2113 
L 5691 0 
L 5113 0 
L 5113 2094 
Q 5113 2597 4934 2840 
Q 4756 3084 4391 3084 
Q 3944 3084 3684 2787 
Q 3425 2491 3425 1978 
L 3425 0 
L 2847 0 
L 2847 2094 
Q 2847 2600 2669 2842 
Q 2491 3084 2119 3084 
Q 1678 3084 1418 2786 
Q 1159 2488 1159 1978 
L 1159 0 
L 581 0 
L 581 3500 
L 1159 3500 
L 1159 2956 
Q 1356 3278 1631 3431 
Q 1906 3584 2284 3584 
Q 2666 3584 2933 3390 
Q 3200 3197 3328 2828 
z
" transform="scale(0.015625)"/>
      <path id="DejaVuSans-68" d="M 3513 2113 
L 3513 0 
L 2938 0 
L 2938 2094 
Q 2938 2591 2744 2837 
Q 2550 3084 2163 3084 
Q 1697 3084 1428 2787 
Q 1159 2491 1159 1978 
L 1159 0 
L 581 0 
L 581 4863 
L 1159 4863 
L 1159 2956 
Q 1366 3272 1645 3428 
Q 1925 3584 2291 3584 
Q 2894 3584 3203 3211 
Q 3513 2838 3513 2113 
z
" transform="scale(0.015625)"/>
      <path id="DejaVuSans-54" d="M -19 4666 
L 3928 4666 
L 3928 4134 
L 2272 4134 
L 2272 0 
L 1638 0 
L 1638 4134 
L -19 4134 
L -19 4666 
z
" transform="scale(0.015625)"/>
      <path id="DejaVuSans-79" d="M 2059 -325 
Q 1816 -950 1584 -1140 
Q 1353 -1331 966 -1331 
L 506 -1331 
L 506 -850 
L 844 -850 
Q 1081 -850 1212 -737 
Q 1344 -625 1503 -206 
L 1606 56 
L 191 3500 
L 800 3500 
L 1894 763 
L 2988 3500 
L 3597 3500 
L 2059 -325 
z
" transform="scale(0.015625)"/>
      <path id="DejaVuSans-4f" d="M 2522 4238 
Q 1834 4238 1429 3725 
Q 1025 3213 1025 2328 
Q 1025 1447 1429 934 
Q 1834 422 2522 422 
Q 3209 422 3611 934 
Q 4013 1447 4013 2328 
Q 4013 3213 3611 3725 
Q 3209 4238 2522 4238 
z
M 2522 4750 
Q 3503 4750 4090 4092 
Q 4678 3434 4678 2328 
Q 4678 1225 4090 567 
Q 3503 -91 2522 -91 
Q 1538 -91 948 565 
Q 359 1222 359 2328 
Q 359 3434 948 4092 
Q 1538 4750 2522 4750 
z
" transform="scale(0.015625)"/>
      <path id="DejaVuSans-76" d="M 191 3500 
L 800 3500 
L 1894 563 
L 2988 3500 
L 3597 3500 
L 2284 0 
L 1503 0 
L 191 3500 
z
" transform="scale(0.015625)"/>
     </defs>
     <use xlink:href="#DejaVuSans-4d"/>
     <use xlink:href="#DejaVuSans-6f" x="86.279297"/>
     <use xlink:href="#DejaVuSans-64" x="147.460938"/>
     <use xlink:href="#DejaVuSans-65" x="210.9375"/>
     <use xlink:href="#DejaVuSans-6c" x="272.460938"/>
     <use xlink:href="#DejaVuSans-20" x="300.244141"/>
     <use xlink:href="#DejaVuSans-50" x="332.03125"/>
     <use xlink:href="#DejaVuSans-72" x="390.583984"/>
     <use xlink:href="#DejaVuSans-65" x="429.447266"/>
     <use xlink:href="#DejaVuSans-64" x="490.970703"/>
     <use xlink:href="#DejaVuSans-69" x="554.447266"/>
     <use xlink:href="#DejaVuSans-63" x="582.230469"/>
     <use xlink:href="#DejaVuSans-74" x="637.210938"/>
     <use xlink:href="#DejaVuSans-69" x="676.419922"/>
     <use xlink:href="#DejaVuSans-6f" x="704.203125"/>
     <use xlink:href="#DejaVuSans-6e" x="765.384766"/>
     <use xlink:href="#DejaVuSans-3a" x="828.763672"/>
     <use xlink:href="#DejaVuSans-20" x="862.455078"/>
     <use xlink:href="#DejaVuSans-25" x="894.242188"/>
     <use xlink:href="#DejaVuSans-20" x="989.261719"/>
     <use xlink:href="#DejaVuSans-6f" x="1021.048828"/>
     <use xlink:href="#DejaVuSans-66" x="1082.230469"/>
     <use xlink:href="#DejaVuSans-20" x="1117.435547"/>
     <use xlink:href="#DejaVuSans-47" x="1149.222656"/>
     <use xlink:href="#DejaVuSans-61" x="1226.712891"/>
     <use xlink:href="#DejaVuSans-6d" x="1287.992188"/>
     <use xlink:href="#DejaVuSans-65" x="1385.404297"/>
     <use xlink:href="#DejaVuSans-73" x="1446.927734"/>
     <use xlink:href="#DejaVuSans-20" x="1499.027344"/>
     <use xlink:href="#DejaVuSans-74" x="1530.814453"/>
     <use xlink:href="#DejaVuSans-68" x="1570.023438"/>
     <use xlink:href="#DejaVuSans-61" x="1633.402344"/>
     <use xlink:href="#DejaVuSans-74" x="1694.681641"/>
     <use xlink:href="#DejaVuSans-20" x="1733.890625"/>
     <use xlink:href="#DejaVuSans-65" x="1765.677734"/>
     <use xlink:href="#DejaVuSans-6e" x="1827.201172"/>
     <use xlink:href="#DejaVuSans-64" x="1890.580078"/>
     <use xlink:href="#DejaVuSans-65" x="1954.056641"/>
     <use xlink:href="#DejaVuSans-64" x="2015.580078"/>
     <use xlink:href="#DejaVuSans-20" x="2079.056641"/>
     <use xlink:href="#DejaVuSans-69" x="2110.84375"/>
     <use xlink:href="#DejaVuSans-6e" x="2138.626953"/>
     <use xlink:href="#DejaVuSans-20" x="2202.005859"/>
     <use xlink:href="#DejaVuSans-35" x="2233.792969"/>
     <use xlink:href="#DejaVuSans-74" x="2297.416016"/>
     <use xlink:href="#DejaVuSans-68" x="2336.625"/>
     <use xlink:href="#DejaVuSans-20" x="2400.003906"/>
     <use xlink:href="#DejaVuSans-54" x="2431.791016"/>
     <use xlink:href="#DejaVuSans-72" x="2478.125"/>
     <use xlink:href="#DejaVuSans-79" x="2519.238281"/>
     <use xlink:href="#DejaVuSans-20" x="2578.417969"/>
     <use xlink:href="#DejaVuSans-4f" x="2610.205078"/>
     <use xlink:href="#DejaVuSans-76" x="2688.916016"/>
     <use xlink:href="#DejaVuSans-65" x="2748.095703"/>
     <use xlink:href="#DejaVuSans-72" x="2809.619141"/>
     <use xlink:href="#DejaVuSans-20" x="2850.732422"/>
     <use xlink:href="#DejaVuSans-54" x="2882.519531"/>
     <use xlink:href="#DejaVuSans-69" x="2940.478516"/>
     <use xlink:href="#DejaVuSans-6d" x="2968.261719"/>
     <use xlink:href="#DejaVuSans-65" x="3065.673828"/>
    </g>
   </g>
  </g>
  <g id="legend_1">
   <g id="patch_5">
    <path d="M 984.882812 154.78125 
L 1145 154.78125 
Q 1147 154.78125 1147 152.78125 
L 1147 7 
Q 1147 5 1145 5 
L 984.882812 5 
Q 982.882812 5 982.882812 7 
L 982.882812 152.78125 
Q 982.882812 154.78125 984.882812 154.78125 
z
" style="fill: #ffffff; opacity: 0.8; stroke: #cccccc; stroke-linejoin: miter"/>
   </g>
   <g id="PathCollection_2">
    <g>
     <use xlink:href="#m0312465c75" x="996.882812" y="13.973438" style="fill: #1f77b4; stroke: #1f77b4"/>
    </g>
   </g>
   <g id="text_16">
    <!-- Ground Truth -->
    <g transform="translate(1014.882812 16.598438) scale(0.1 -0.1)">
     <defs>
      <path id="DejaVuSans-75" d="M 544 1381 
L 544 3500 
L 1119 3500 
L 1119 1403 
Q 1119 906 1312 657 
Q 1506 409 1894 409 
Q 2359 409 2629 706 
Q 2900 1003 2900 1516 
L 2900 3500 
L 3475 3500 
L 3475 0 
L 2900 0 
L 2900 538 
Q 2691 219 2414 64 
Q 2138 -91 1772 -91 
Q 1169 -91 856 284 
Q 544 659 544 1381 
z
M 1991 3584 
L 1991 3584 
z
" transform="scale(0.015625)"/>
     </defs>
     <use xlink:href="#DejaVuSans-47"/>
     <use xlink:href="#DejaVuSans-72" x="77.490234"/>
     <use xlink:href="#DejaVuSans-6f" x="116.353516"/>
     <use xlink:href="#DejaVuSans-75" x="177.535156"/>
     <use xlink:href="#DejaVuSans-6e" x="240.914062"/>
     <use xlink:href="#DejaVuSans-64" x="304.292969"/>
     <use xlink:href="#DejaVuSans-20" x="367.769531"/>
     <use xlink:href="#DejaVuSans-54" x="399.556641"/>
     <use xlink:href="#DejaVuSans-72" x="445.890625"/>
     <use xlink:href="#DejaVuSans-75" x="487.003906"/>
     <use xlink:href="#DejaVuSans-74" x="550.382812"/>
     <use xlink:href="#DejaVuSans-68" x="589.591797"/>
    </g>
   </g>
   <g id="line2d_22">
    <path d="M 986.882812 27.776563 
L 996.882812 27.776563 
L 1006.882812 27.776563 
" style="fill: none; stroke: #1f77b4; stroke-width: 2.5; stroke-linecap: square"/>
   </g>
   <g id="text_17">
    <!-- K-nn -->
    <g transform="translate(1014.882812 31.276563) scale(0.1 -0.1)">
     <defs>
      <path id="DejaVuSans-4b" d="M 628 4666 
L 1259 4666 
L 1259 2694 
L 3353 4666 
L 4166 4666 
L 1850 2491 
L 4331 0 
L 3500 0 
L 1259 2247 
L 1259 0 
L 628 0 
L 628 4666 
z
" transform="scale(0.015625)"/>
     </defs>
     <use xlink:href="#DejaVuSans-4b"/>
     <use xlink:href="#DejaVuSans-2d" x="55.076172"/>
     <use xlink:href="#DejaVuSans-6e" x="91.160156"/>
     <use xlink:href="#DejaVuSans-6e" x="154.539062"/>
    </g>
   </g>
   <g id="line2d_23">
    <path d="M 986.882812 42.454688 
L 996.882812 42.454688 
L 1006.882812 42.454688 
" style="fill: none; stroke: #ff7f0e; stroke-width: 2.5; stroke-linecap: square"/>
   </g>
   <g id="text_18">
    <!-- Linear Regression -->
    <g transform="translate(1014.882812 45.954688) scale(0.1 -0.1)">
     <defs>
      <path id="DejaVuSans-4c" d="M 628 4666 
L 1259 4666 
L 1259 531 
L 3531 531 
L 3531 0 
L 628 0 
L 628 4666 
z
" transform="scale(0.015625)"/>
      <path id="DejaVuSans-67" d="M 2906 1791 
Q 2906 2416 2648 2759 
Q 2391 3103 1925 3103 
Q 1463 3103 1205 2759 
Q 947 2416 947 1791 
Q 947 1169 1205 825 
Q 1463 481 1925 481 
Q 2391 481 2648 825 
Q 2906 1169 2906 1791 
z
M 3481 434 
Q 3481 -459 3084 -895 
Q 2688 -1331 1869 -1331 
Q 1566 -1331 1297 -1286 
Q 1028 -1241 775 -1147 
L 775 -588 
Q 1028 -725 1275 -790 
Q 1522 -856 1778 -856 
Q 2344 -856 2625 -561 
Q 2906 -266 2906 331 
L 2906 616 
Q 2728 306 2450 153 
Q 2172 0 1784 0 
Q 1141 0 747 490 
Q 353 981 353 1791 
Q 353 2603 747 3093 
Q 1141 3584 1784 3584 
Q 2172 3584 2450 3431 
Q 2728 3278 2906 2969 
L 2906 3500 
L 3481 3500 
L 3481 434 
z
" transform="scale(0.015625)"/>
     </defs>
     <use xlink:href="#DejaVuSans-4c"/>
     <use xlink:href="#DejaVuSans-69" x="55.712891"/>
     <use xlink:href="#DejaVuSans-6e" x="83.496094"/>
     <use xlink:href="#DejaVuSans-65" x="146.875"/>
     <use xlink:href="#DejaVuSans-61" x="208.398438"/>
     <use xlink:href="#DejaVuSans-72" x="269.677734"/>
     <use xlink:href="#DejaVuSans-20" x="310.791016"/>
     <use xlink:href="#DejaVuSans-52" x="342.578125"/>
     <use xlink:href="#DejaVuSans-65" x="407.560547"/>
     <use xlink:href="#DejaVuSans-67" x="469.083984"/>
     <use xlink:href="#DejaVuSans-72" x="532.560547"/>
     <use xlink:href="#DejaVuSans-65" x="571.423828"/>
     <use xlink:href="#DejaVuSans-73" x="632.947266"/>
     <use xlink:href="#DejaVuSans-73" x="685.046875"/>
     <use xlink:href="#DejaVuSans-69" x="737.146484"/>
     <use xlink:href="#DejaVuSans-6f" x="764.929688"/>
     <use xlink:href="#DejaVuSans-6e" x="826.111328"/>
    </g>
   </g>
   <g id="line2d_24">
    <path d="M 986.882812 57.132812 
L 996.882812 57.132812 
L 1006.882812 57.132812 
" style="fill: none; stroke: #2ca02c; stroke-width: 2.5; stroke-linecap: square"/>
   </g>
   <g id="text_19">
    <!-- Ridge -->
    <g transform="translate(1014.882812 60.632812) scale(0.1 -0.1)">
     <use xlink:href="#DejaVuSans-52"/>
     <use xlink:href="#DejaVuSans-69" x="69.482422"/>
     <use xlink:href="#DejaVuSans-64" x="97.265625"/>
     <use xlink:href="#DejaVuSans-67" x="160.742188"/>
     <use xlink:href="#DejaVuSans-65" x="224.21875"/>
    </g>
   </g>
   <g id="line2d_25">
    <path d="M 986.882812 71.810938 
L 996.882812 71.810938 
L 1006.882812 71.810938 
" style="fill: none; stroke: #d62728; stroke-width: 2.5; stroke-linecap: square"/>
   </g>
   <g id="text_20">
    <!-- Lasso -->
    <g transform="translate(1014.882812 75.310938) scale(0.1 -0.1)">
     <use xlink:href="#DejaVuSans-4c"/>
     <use xlink:href="#DejaVuSans-61" x="55.712891"/>
     <use xlink:href="#DejaVuSans-73" x="116.992188"/>
     <use xlink:href="#DejaVuSans-73" x="169.091797"/>
     <use xlink:href="#DejaVuSans-6f" x="221.191406"/>
    </g>
   </g>
   <g id="line2d_26">
    <path d="M 986.882812 86.489063 
L 996.882812 86.489063 
L 1006.882812 86.489063 
" style="fill: none; stroke: #9467bd; stroke-width: 2.5; stroke-linecap: square"/>
   </g>
   <g id="text_21">
    <!-- Elastic Net -->
    <g transform="translate(1014.882812 89.989063) scale(0.1 -0.1)">
     <defs>
      <path id="DejaVuSans-45" d="M 628 4666 
L 3578 4666 
L 3578 4134 
L 1259 4134 
L 1259 2753 
L 3481 2753 
L 3481 2222 
L 1259 2222 
L 1259 531 
L 3634 531 
L 3634 0 
L 628 0 
L 628 4666 
z
" transform="scale(0.015625)"/>
      <path id="DejaVuSans-4e" d="M 628 4666 
L 1478 4666 
L 3547 763 
L 3547 4666 
L 4159 4666 
L 4159 0 
L 3309 0 
L 1241 3903 
L 1241 0 
L 628 0 
L 628 4666 
z
" transform="scale(0.015625)"/>
     </defs>
     <use xlink:href="#DejaVuSans-45"/>
     <use xlink:href="#DejaVuSans-6c" x="63.183594"/>
     <use xlink:href="#DejaVuSans-61" x="90.966797"/>
     <use xlink:href="#DejaVuSans-73" x="152.246094"/>
     <use xlink:href="#DejaVuSans-74" x="204.345703"/>
     <use xlink:href="#DejaVuSans-69" x="243.554688"/>
     <use xlink:href="#DejaVuSans-63" x="271.337891"/>
     <use xlink:href="#DejaVuSans-20" x="326.318359"/>
     <use xlink:href="#DejaVuSans-4e" x="358.105469"/>
     <use xlink:href="#DejaVuSans-65" x="432.910156"/>
     <use xlink:href="#DejaVuSans-74" x="494.433594"/>
    </g>
   </g>
   <g id="line2d_27">
    <path d="M 986.882812 101.167188 
L 996.882812 101.167188 
L 1006.882812 101.167188 
" style="fill: none; stroke: #8c564b; stroke-width: 2.5; stroke-linecap: square"/>
   </g>
   <g id="text_22">
    <!-- Random Forest Regressor -->
    <g transform="translate(1014.882812 104.667188) scale(0.1 -0.1)">
     <defs>
      <path id="DejaVuSans-46" d="M 628 4666 
L 3309 4666 
L 3309 4134 
L 1259 4134 
L 1259 2759 
L 3109 2759 
L 3109 2228 
L 1259 2228 
L 1259 0 
L 628 0 
L 628 4666 
z
" transform="scale(0.015625)"/>
     </defs>
     <use xlink:href="#DejaVuSans-52"/>
     <use xlink:href="#DejaVuSans-61" x="67.232422"/>
     <use xlink:href="#DejaVuSans-6e" x="128.511719"/>
     <use xlink:href="#DejaVuSans-64" x="191.890625"/>
     <use xlink:href="#DejaVuSans-6f" x="255.367188"/>
     <use xlink:href="#DejaVuSans-6d" x="316.548828"/>
     <use xlink:href="#DejaVuSans-20" x="413.960938"/>
     <use xlink:href="#DejaVuSans-46" x="445.748047"/>
     <use xlink:href="#DejaVuSans-6f" x="499.642578"/>
     <use xlink:href="#DejaVuSans-72" x="560.824219"/>
     <use xlink:href="#DejaVuSans-65" x="599.6875"/>
     <use xlink:href="#DejaVuSans-73" x="661.210938"/>
     <use xlink:href="#DejaVuSans-74" x="713.310547"/>
     <use xlink:href="#DejaVuSans-20" x="752.519531"/>
     <use xlink:href="#DejaVuSans-52" x="784.306641"/>
     <use xlink:href="#DejaVuSans-65" x="849.289062"/>
     <use xlink:href="#DejaVuSans-67" x="910.8125"/>
     <use xlink:href="#DejaVuSans-72" x="974.289062"/>
     <use xlink:href="#DejaVuSans-65" x="1013.152344"/>
     <use xlink:href="#DejaVuSans-73" x="1074.675781"/>
     <use xlink:href="#DejaVuSans-73" x="1126.775391"/>
     <use xlink:href="#DejaVuSans-6f" x="1178.875"/>
     <use xlink:href="#DejaVuSans-72" x="1240.056641"/>
    </g>
   </g>
   <g id="line2d_28">
    <path d="M 986.882812 115.845313 
L 996.882812 115.845313 
L 1006.882812 115.845313 
" style="fill: none; stroke: #e377c2; stroke-width: 2.5; stroke-linecap: square"/>
   </g>
   <g id="text_23">
    <!-- Decision Tree Regressor -->
    <g transform="translate(1014.882812 119.345313) scale(0.1 -0.1)">
     <use xlink:href="#DejaVuSans-44"/>
     <use xlink:href="#DejaVuSans-65" x="77.001953"/>
     <use xlink:href="#DejaVuSans-63" x="138.525391"/>
     <use xlink:href="#DejaVuSans-69" x="193.505859"/>
     <use xlink:href="#DejaVuSans-73" x="221.289062"/>
     <use xlink:href="#DejaVuSans-69" x="273.388672"/>
     <use xlink:href="#DejaVuSans-6f" x="301.171875"/>
     <use xlink:href="#DejaVuSans-6e" x="362.353516"/>
     <use xlink:href="#DejaVuSans-20" x="425.732422"/>
     <use xlink:href="#DejaVuSans-54" x="457.519531"/>
     <use xlink:href="#DejaVuSans-72" x="503.853516"/>
     <use xlink:href="#DejaVuSans-65" x="542.716797"/>
     <use xlink:href="#DejaVuSans-65" x="604.240234"/>
     <use xlink:href="#DejaVuSans-20" x="665.763672"/>
     <use xlink:href="#DejaVuSans-52" x="697.550781"/>
     <use xlink:href="#DejaVuSans-65" x="762.533203"/>
     <use xlink:href="#DejaVuSans-67" x="824.056641"/>
     <use xlink:href="#DejaVuSans-72" x="887.533203"/>
     <use xlink:href="#DejaVuSans-65" x="926.396484"/>
     <use xlink:href="#DejaVuSans-73" x="987.919922"/>
     <use xlink:href="#DejaVuSans-73" x="1040.019531"/>
     <use xlink:href="#DejaVuSans-6f" x="1092.119141"/>
     <use xlink:href="#DejaVuSans-72" x="1153.300781"/>
    </g>
   </g>
   <g id="line2d_29">
    <path d="M 986.882812 130.523438 
L 996.882812 130.523438 
L 1006.882812 130.523438 
" style="fill: none; stroke: #7f7f7f; stroke-width: 2.5; stroke-linecap: square"/>
   </g>
   <g id="text_24">
    <!-- MultiO/P GBR -->
    <g transform="translate(1014.882812 134.023438) scale(0.1 -0.1)">
     <defs>
      <path id="DejaVuSans-2f" d="M 1625 4666 
L 2156 4666 
L 531 -594 
L 0 -594 
L 1625 4666 
z
" transform="scale(0.015625)"/>
      <path id="DejaVuSans-42" d="M 1259 2228 
L 1259 519 
L 2272 519 
Q 2781 519 3026 730 
Q 3272 941 3272 1375 
Q 3272 1813 3026 2020 
Q 2781 2228 2272 2228 
L 1259 2228 
z
M 1259 4147 
L 1259 2741 
L 2194 2741 
Q 2656 2741 2882 2914 
Q 3109 3088 3109 3444 
Q 3109 3797 2882 3972 
Q 2656 4147 2194 4147 
L 1259 4147 
z
M 628 4666 
L 2241 4666 
Q 2963 4666 3353 4366 
Q 3744 4066 3744 3513 
Q 3744 3084 3544 2831 
Q 3344 2578 2956 2516 
Q 3422 2416 3680 2098 
Q 3938 1781 3938 1306 
Q 3938 681 3513 340 
Q 3088 0 2303 0 
L 628 0 
L 628 4666 
z
" transform="scale(0.015625)"/>
     </defs>
     <use xlink:href="#DejaVuSans-4d"/>
     <use xlink:href="#DejaVuSans-75" x="86.279297"/>
     <use xlink:href="#DejaVuSans-6c" x="149.658203"/>
     <use xlink:href="#DejaVuSans-74" x="177.441406"/>
     <use xlink:href="#DejaVuSans-69" x="216.650391"/>
     <use xlink:href="#DejaVuSans-4f" x="244.433594"/>
     <use xlink:href="#DejaVuSans-2f" x="323.144531"/>
     <use xlink:href="#DejaVuSans-50" x="356.835938"/>
     <use xlink:href="#DejaVuSans-20" x="417.138672"/>
     <use xlink:href="#DejaVuSans-47" x="448.925781"/>
     <use xlink:href="#DejaVuSans-42" x="526.416016"/>
     <use xlink:href="#DejaVuSans-52" x="595.019531"/>
    </g>
   </g>
   <g id="line2d_30">
    <path d="M 986.882812 145.201563 
L 996.882812 145.201563 
L 1006.882812 145.201563 
" style="fill: none; stroke: #bcbd22; stroke-width: 2.5; stroke-linecap: square"/>
   </g>
   <g id="text_25">
    <!-- MultiO/P AdaB -->
    <g transform="translate(1014.882812 148.701563) scale(0.1 -0.1)">
     <defs>
      <path id="DejaVuSans-41" d="M 2188 4044 
L 1331 1722 
L 3047 1722 
L 2188 4044 
z
M 1831 4666 
L 2547 4666 
L 4325 0 
L 3669 0 
L 3244 1197 
L 1141 1197 
L 716 0 
L 50 0 
L 1831 4666 
z
" transform="scale(0.015625)"/>
     </defs>
     <use xlink:href="#DejaVuSans-4d"/>
     <use xlink:href="#DejaVuSans-75" x="86.279297"/>
     <use xlink:href="#DejaVuSans-6c" x="149.658203"/>
     <use xlink:href="#DejaVuSans-74" x="177.441406"/>
     <use xlink:href="#DejaVuSans-69" x="216.650391"/>
     <use xlink:href="#DejaVuSans-4f" x="244.433594"/>
     <use xlink:href="#DejaVuSans-2f" x="323.144531"/>
     <use xlink:href="#DejaVuSans-50" x="356.835938"/>
     <use xlink:href="#DejaVuSans-20" x="417.138672"/>
     <use xlink:href="#DejaVuSans-41" x="448.925781"/>
     <use xlink:href="#DejaVuSans-64" x="515.583984"/>
     <use xlink:href="#DejaVuSans-61" x="579.060547"/>
     <use xlink:href="#DejaVuSans-42" x="640.339844"/>
    </g>
   </g>
  </g>
 </g>
 <defs>
  <clipPath id="pfb8e1c069c">
   <rect x="144" y="69.12" width="892.8" height="443.52"/>
  </clipPath>
 </defs>
</svg>
