<?xml version="1.0" encoding="utf-8" standalone="no"?>
<!DOCTYPE svg PUBLIC "-//W3C//DTD SVG 1.1//EN"
  "http://www.w3.org/Graphics/SVG/1.1/DTD/svg11.dtd">
<svg xmlns:xlink="http://www.w3.org/1999/xlink" width="1152pt" height="576pt" viewBox="0 0 1152 576" xmlns="http://www.w3.org/2000/svg" version="1.1">
 <metadata>
  <rdf:RDF xmlns:dc="http://purl.org/dc/elements/1.1/" xmlns:cc="http://creativecommons.org/ns#" xmlns:rdf="http://www.w3.org/1999/02/22-rdf-syntax-ns#">
   <cc:Work>
    <dc:type rdf:resource="http://purl.org/dc/dcmitype/StillImage"/>
    <dc:date>2023-02-20T04:42:24.918388</dc:date>
    <dc:format>image/svg+xml</dc:format>
    <dc:creator>
     <cc:Agent>
      <dc:title>Matplotlib v3.7.0, https://matplotlib.org/</dc:title>
     </cc:Agent>
    </dc:creator>
   </cc:Work>
  </rdf:RDF>
 </metadata>
 <defs>
  <style type="text/css">*{stroke-linejoin: round; stroke-linecap: butt}</style>
 </defs>
 <g id="figure_1">
  <g id="patch_1">
   <path d="M 0 576 
L 1152 576 
L 1152 0 
L 0 0 
z
" style="fill: #ffffff"/>
  </g>
  <g id="axes_1">
   <g id="patch_2">
    <path d="M 144 512.64 
L 1036.8 512.64 
L 1036.8 69.12 
L 144 69.12 
z
" style="fill: #ffffff"/>
   </g>
   <g id="PathCollection_1">
    <defs>
     <path id="m9d0cfd7a0c" d="M 0 3 
C 0.795609 3 1.55874 2.683901 2.12132 2.12132 
C 2.683901 1.55874 3 0.795609 3 0 
C 3 -0.795609 2.683901 -1.55874 2.12132 -2.12132 
C 1.55874 -2.683901 0.795609 -3 0 -3 
C -0.795609 -3 -1.55874 -2.683901 -2.12132 -2.12132 
C -2.683901 -1.55874 -3 -0.795609 -3 0 
C -3 0.795609 -2.683901 1.55874 -2.12132 2.12132 
C -1.55874 2.683901 -0.795609 3 0 3 
z
" style="stroke: #1f77b4"/>
    </defs>
    <g clip-path="url(#p6be47e7a3d)">
     <use xlink:href="#m9d0cfd7a0c" x="144" y="425.28" style="fill: #1f77b4; stroke: #1f77b4"/>
     <use xlink:href="#m9d0cfd7a0c" x="156.574648" y="470.08" style="fill: #1f77b4; stroke: #1f77b4"/>
     <use xlink:href="#m9d0cfd7a0c" x="169.149296" y="89.28" style="fill: #1f77b4; stroke: #1f77b4"/>
     <use xlink:href="#m9d0cfd7a0c" x="181.723944" y="470.08" style="fill: #1f77b4; stroke: #1f77b4"/>
     <use xlink:href="#m9d0cfd7a0c" x="194.298592" y="425.28" style="fill: #1f77b4; stroke: #1f77b4"/>
     <use xlink:href="#m9d0cfd7a0c" x="206.873239" y="470.08" style="fill: #1f77b4; stroke: #1f77b4"/>
     <use xlink:href="#m9d0cfd7a0c" x="219.447887" y="425.28" style="fill: #1f77b4; stroke: #1f77b4"/>
     <use xlink:href="#m9d0cfd7a0c" x="232.022535" y="470.08" style="fill: #1f77b4; stroke: #1f77b4"/>
     <use xlink:href="#m9d0cfd7a0c" x="244.597183" y="447.68" style="fill: #1f77b4; stroke: #1f77b4"/>
     <use xlink:href="#m9d0cfd7a0c" x="257.171831" y="425.28" style="fill: #1f77b4; stroke: #1f77b4"/>
     <use xlink:href="#m9d0cfd7a0c" x="269.746479" y="470.08" style="fill: #1f77b4; stroke: #1f77b4"/>
     <use xlink:href="#m9d0cfd7a0c" x="282.321127" y="447.68" style="fill: #1f77b4; stroke: #1f77b4"/>
     <use xlink:href="#m9d0cfd7a0c" x="294.895775" y="470.08" style="fill: #1f77b4; stroke: #1f77b4"/>
     <use xlink:href="#m9d0cfd7a0c" x="307.470423" y="470.08" style="fill: #1f77b4; stroke: #1f77b4"/>
     <use xlink:href="#m9d0cfd7a0c" x="320.04507" y="492.48" style="fill: #1f77b4; stroke: #1f77b4"/>
     <use xlink:href="#m9d0cfd7a0c" x="332.619718" y="470.08" style="fill: #1f77b4; stroke: #1f77b4"/>
     <use xlink:href="#m9d0cfd7a0c" x="345.194366" y="447.68" style="fill: #1f77b4; stroke: #1f77b4"/>
     <use xlink:href="#m9d0cfd7a0c" x="357.769014" y="470.08" style="fill: #1f77b4; stroke: #1f77b4"/>
     <use xlink:href="#m9d0cfd7a0c" x="370.343662" y="470.08" style="fill: #1f77b4; stroke: #1f77b4"/>
     <use xlink:href="#m9d0cfd7a0c" x="382.91831" y="470.08" style="fill: #1f77b4; stroke: #1f77b4"/>
     <use xlink:href="#m9d0cfd7a0c" x="395.492958" y="470.08" style="fill: #1f77b4; stroke: #1f77b4"/>
     <use xlink:href="#m9d0cfd7a0c" x="408.067606" y="470.08" style="fill: #1f77b4; stroke: #1f77b4"/>
     <use xlink:href="#m9d0cfd7a0c" x="420.642254" y="470.08" style="fill: #1f77b4; stroke: #1f77b4"/>
     <use xlink:href="#m9d0cfd7a0c" x="433.216901" y="425.28" style="fill: #1f77b4; stroke: #1f77b4"/>
     <use xlink:href="#m9d0cfd7a0c" x="445.791549" y="470.08" style="fill: #1f77b4; stroke: #1f77b4"/>
     <use xlink:href="#m9d0cfd7a0c" x="458.366197" y="402.88" style="fill: #1f77b4; stroke: #1f77b4"/>
     <use xlink:href="#m9d0cfd7a0c" x="470.940845" y="268.48" style="fill: #1f77b4; stroke: #1f77b4"/>
     <use xlink:href="#m9d0cfd7a0c" x="483.515493" y="492.48" style="fill: #1f77b4; stroke: #1f77b4"/>
     <use xlink:href="#m9d0cfd7a0c" x="496.090141" y="470.08" style="fill: #1f77b4; stroke: #1f77b4"/>
     <use xlink:href="#m9d0cfd7a0c" x="508.664789" y="470.08" style="fill: #1f77b4; stroke: #1f77b4"/>
     <use xlink:href="#m9d0cfd7a0c" x="521.239437" y="380.48" style="fill: #1f77b4; stroke: #1f77b4"/>
     <use xlink:href="#m9d0cfd7a0c" x="533.814085" y="425.28" style="fill: #1f77b4; stroke: #1f77b4"/>
     <use xlink:href="#m9d0cfd7a0c" x="546.388732" y="470.08" style="fill: #1f77b4; stroke: #1f77b4"/>
     <use xlink:href="#m9d0cfd7a0c" x="558.96338" y="470.08" style="fill: #1f77b4; stroke: #1f77b4"/>
     <use xlink:href="#m9d0cfd7a0c" x="571.538028" y="447.68" style="fill: #1f77b4; stroke: #1f77b4"/>
     <use xlink:href="#m9d0cfd7a0c" x="584.112676" y="470.08" style="fill: #1f77b4; stroke: #1f77b4"/>
     <use xlink:href="#m9d0cfd7a0c" x="596.687324" y="492.48" style="fill: #1f77b4; stroke: #1f77b4"/>
     <use xlink:href="#m9d0cfd7a0c" x="609.261972" y="470.08" style="fill: #1f77b4; stroke: #1f77b4"/>
     <use xlink:href="#m9d0cfd7a0c" x="621.83662" y="492.48" style="fill: #1f77b4; stroke: #1f77b4"/>
     <use xlink:href="#m9d0cfd7a0c" x="634.411268" y="447.68" style="fill: #1f77b4; stroke: #1f77b4"/>
     <use xlink:href="#m9d0cfd7a0c" x="646.985915" y="447.68" style="fill: #1f77b4; stroke: #1f77b4"/>
     <use xlink:href="#m9d0cfd7a0c" x="659.560563" y="447.68" style="fill: #1f77b4; stroke: #1f77b4"/>
     <use xlink:href="#m9d0cfd7a0c" x="672.135211" y="447.68" style="fill: #1f77b4; stroke: #1f77b4"/>
     <use xlink:href="#m9d0cfd7a0c" x="684.709859" y="470.08" style="fill: #1f77b4; stroke: #1f77b4"/>
     <use xlink:href="#m9d0cfd7a0c" x="697.284507" y="470.08" style="fill: #1f77b4; stroke: #1f77b4"/>
     <use xlink:href="#m9d0cfd7a0c" x="709.859155" y="402.88" style="fill: #1f77b4; stroke: #1f77b4"/>
     <use xlink:href="#m9d0cfd7a0c" x="722.433803" y="425.28" style="fill: #1f77b4; stroke: #1f77b4"/>
     <use xlink:href="#m9d0cfd7a0c" x="735.008451" y="447.68" style="fill: #1f77b4; stroke: #1f77b4"/>
     <use xlink:href="#m9d0cfd7a0c" x="747.583099" y="425.28" style="fill: #1f77b4; stroke: #1f77b4"/>
     <use xlink:href="#m9d0cfd7a0c" x="760.157746" y="492.48" style="fill: #1f77b4; stroke: #1f77b4"/>
     <use xlink:href="#m9d0cfd7a0c" x="772.732394" y="470.08" style="fill: #1f77b4; stroke: #1f77b4"/>
     <use xlink:href="#m9d0cfd7a0c" x="785.307042" y="470.08" style="fill: #1f77b4; stroke: #1f77b4"/>
     <use xlink:href="#m9d0cfd7a0c" x="797.88169" y="470.08" style="fill: #1f77b4; stroke: #1f77b4"/>
     <use xlink:href="#m9d0cfd7a0c" x="810.456338" y="492.48" style="fill: #1f77b4; stroke: #1f77b4"/>
     <use xlink:href="#m9d0cfd7a0c" x="823.030986" y="470.08" style="fill: #1f77b4; stroke: #1f77b4"/>
     <use xlink:href="#m9d0cfd7a0c" x="835.605634" y="470.08" style="fill: #1f77b4; stroke: #1f77b4"/>
     <use xlink:href="#m9d0cfd7a0c" x="848.180282" y="425.28" style="fill: #1f77b4; stroke: #1f77b4"/>
     <use xlink:href="#m9d0cfd7a0c" x="860.75493" y="492.48" style="fill: #1f77b4; stroke: #1f77b4"/>
     <use xlink:href="#m9d0cfd7a0c" x="873.329577" y="425.28" style="fill: #1f77b4; stroke: #1f77b4"/>
     <use xlink:href="#m9d0cfd7a0c" x="885.904225" y="470.08" style="fill: #1f77b4; stroke: #1f77b4"/>
     <use xlink:href="#m9d0cfd7a0c" x="898.478873" y="492.48" style="fill: #1f77b4; stroke: #1f77b4"/>
     <use xlink:href="#m9d0cfd7a0c" x="911.053521" y="492.48" style="fill: #1f77b4; stroke: #1f77b4"/>
     <use xlink:href="#m9d0cfd7a0c" x="923.628169" y="447.68" style="fill: #1f77b4; stroke: #1f77b4"/>
     <use xlink:href="#m9d0cfd7a0c" x="936.202817" y="425.28" style="fill: #1f77b4; stroke: #1f77b4"/>
     <use xlink:href="#m9d0cfd7a0c" x="948.777465" y="470.08" style="fill: #1f77b4; stroke: #1f77b4"/>
     <use xlink:href="#m9d0cfd7a0c" x="961.352113" y="470.08" style="fill: #1f77b4; stroke: #1f77b4"/>
     <use xlink:href="#m9d0cfd7a0c" x="973.926761" y="178.88" style="fill: #1f77b4; stroke: #1f77b4"/>
     <use xlink:href="#m9d0cfd7a0c" x="986.501408" y="425.28" style="fill: #1f77b4; stroke: #1f77b4"/>
     <use xlink:href="#m9d0cfd7a0c" x="999.076056" y="470.08" style="fill: #1f77b4; stroke: #1f77b4"/>
     <use xlink:href="#m9d0cfd7a0c" x="1011.650704" y="447.68" style="fill: #1f77b4; stroke: #1f77b4"/>
     <use xlink:href="#m9d0cfd7a0c" x="1024.225352" y="470.08" style="fill: #1f77b4; stroke: #1f77b4"/>
     <use xlink:href="#m9d0cfd7a0c" x="1036.8" y="447.68" style="fill: #1f77b4; stroke: #1f77b4"/>
    </g>
   </g>
   <g id="matplotlib.axis_1">
    <g id="xtick_1">
     <g id="line2d_1">
      <defs>
       <path id="m24ae4b9518" d="M 0 0 
L 0 3.5 
" style="stroke: #000000; stroke-width: 0.8"/>
      </defs>
      <g>
       <use xlink:href="#m24ae4b9518" x="244.364319" y="512.64" style="stroke: #000000; stroke-width: 0.8"/>
      </g>
     </g>
     <g id="text_1">
      <!-- 2022-10-22 00:00:00 -->
      <g transform="translate(180.640569 528.758125) scale(0.12 -0.12)">
       <defs>
        <path id="DejaVuSans-32" d="M 1228 531 
L 3431 531 
L 3431 0 
L 469 0 
L 469 531 
Q 828 903 1448 1529 
Q 2069 2156 2228 2338 
Q 2531 2678 2651 2914 
Q 2772 3150 2772 3378 
Q 2772 3750 2511 3984 
Q 2250 4219 1831 4219 
Q 1534 4219 1204 4116 
Q 875 4013 500 3803 
L 500 4441 
Q 881 4594 1212 4672 
Q 1544 4750 1819 4750 
Q 2544 4750 2975 4387 
Q 3406 4025 3406 3419 
Q 3406 3131 3298 2873 
Q 3191 2616 2906 2266 
Q 2828 2175 2409 1742 
Q 1991 1309 1228 531 
z
" transform="scale(0.015625)"/>
        <path id="DejaVuSans-30" d="M 2034 4250 
Q 1547 4250 1301 3770 
Q 1056 3291 1056 2328 
Q 1056 1369 1301 889 
Q 1547 409 2034 409 
Q 2525 409 2770 889 
Q 3016 1369 3016 2328 
Q 3016 3291 2770 3770 
Q 2525 4250 2034 4250 
z
M 2034 4750 
Q 2819 4750 3233 4129 
Q 3647 3509 3647 2328 
Q 3647 1150 3233 529 
Q 2819 -91 2034 -91 
Q 1250 -91 836 529 
Q 422 1150 422 2328 
Q 422 3509 836 4129 
Q 1250 4750 2034 4750 
z
" transform="scale(0.015625)"/>
        <path id="DejaVuSans-2d" d="M 313 2009 
L 1997 2009 
L 1997 1497 
L 313 1497 
L 313 2009 
z
" transform="scale(0.015625)"/>
        <path id="DejaVuSans-31" d="M 794 531 
L 1825 531 
L 1825 4091 
L 703 3866 
L 703 4441 
L 1819 4666 
L 2450 4666 
L 2450 531 
L 3481 531 
L 3481 0 
L 794 0 
L 794 531 
z
" transform="scale(0.015625)"/>
        <path id="DejaVuSans-20" transform="scale(0.015625)"/>
        <path id="DejaVuSans-3a" d="M 750 794 
L 1409 794 
L 1409 0 
L 750 0 
L 750 794 
z
M 750 3309 
L 1409 3309 
L 1409 2516 
L 750 2516 
L 750 3309 
z
" transform="scale(0.015625)"/>
       </defs>
       <use xlink:href="#DejaVuSans-32"/>
       <use xlink:href="#DejaVuSans-30" x="63.623047"/>
       <use xlink:href="#DejaVuSans-32" x="127.246094"/>
       <use xlink:href="#DejaVuSans-32" x="190.869141"/>
       <use xlink:href="#DejaVuSans-2d" x="254.492188"/>
       <use xlink:href="#DejaVuSans-31" x="290.576172"/>
       <use xlink:href="#DejaVuSans-30" x="354.199219"/>
       <use xlink:href="#DejaVuSans-2d" x="417.822266"/>
       <use xlink:href="#DejaVuSans-32" x="453.90625"/>
       <use xlink:href="#DejaVuSans-32" x="517.529297"/>
       <use xlink:href="#DejaVuSans-20" x="581.152344"/>
       <use xlink:href="#DejaVuSans-30" x="612.939453"/>
       <use xlink:href="#DejaVuSans-30" x="676.5625"/>
       <use xlink:href="#DejaVuSans-3a" x="740.185547"/>
       <use xlink:href="#DejaVuSans-30" x="773.876953"/>
       <use xlink:href="#DejaVuSans-30" x="837.5"/>
       <use xlink:href="#DejaVuSans-3a" x="901.123047"/>
       <use xlink:href="#DejaVuSans-30" x="934.814453"/>
       <use xlink:href="#DejaVuSans-30" x="998.4375"/>
      </g>
     </g>
    </g>
    <g id="xtick_2">
     <g id="line2d_2">
      <g>
       <use xlink:href="#m24ae4b9518" x="389.904225" y="512.64" style="stroke: #000000; stroke-width: 0.8"/>
      </g>
     </g>
     <g id="text_2">
      <!-- 2022-10-23 00:00:00 -->
      <g transform="translate(326.180475 528.758125) scale(0.12 -0.12)">
       <defs>
        <path id="DejaVuSans-33" d="M 2597 2516 
Q 3050 2419 3304 2112 
Q 3559 1806 3559 1356 
Q 3559 666 3084 287 
Q 2609 -91 1734 -91 
Q 1441 -91 1130 -33 
Q 819 25 488 141 
L 488 750 
Q 750 597 1062 519 
Q 1375 441 1716 441 
Q 2309 441 2620 675 
Q 2931 909 2931 1356 
Q 2931 1769 2642 2001 
Q 2353 2234 1838 2234 
L 1294 2234 
L 1294 2753 
L 1863 2753 
Q 2328 2753 2575 2939 
Q 2822 3125 2822 3475 
Q 2822 3834 2567 4026 
Q 2313 4219 1838 4219 
Q 1578 4219 1281 4162 
Q 984 4106 628 3988 
L 628 4550 
Q 988 4650 1302 4700 
Q 1616 4750 1894 4750 
Q 2613 4750 3031 4423 
Q 3450 4097 3450 3541 
Q 3450 3153 3228 2886 
Q 3006 2619 2597 2516 
z
" transform="scale(0.015625)"/>
       </defs>
       <use xlink:href="#DejaVuSans-32"/>
       <use xlink:href="#DejaVuSans-30" x="63.623047"/>
       <use xlink:href="#DejaVuSans-32" x="127.246094"/>
       <use xlink:href="#DejaVuSans-32" x="190.869141"/>
       <use xlink:href="#DejaVuSans-2d" x="254.492188"/>
       <use xlink:href="#DejaVuSans-31" x="290.576172"/>
       <use xlink:href="#DejaVuSans-30" x="354.199219"/>
       <use xlink:href="#DejaVuSans-2d" x="417.822266"/>
       <use xlink:href="#DejaVuSans-32" x="453.90625"/>
       <use xlink:href="#DejaVuSans-33" x="517.529297"/>
       <use xlink:href="#DejaVuSans-20" x="581.152344"/>
       <use xlink:href="#DejaVuSans-30" x="612.939453"/>
       <use xlink:href="#DejaVuSans-30" x="676.5625"/>
       <use xlink:href="#DejaVuSans-3a" x="740.185547"/>
       <use xlink:href="#DejaVuSans-30" x="773.876953"/>
       <use xlink:href="#DejaVuSans-30" x="837.5"/>
       <use xlink:href="#DejaVuSans-3a" x="901.123047"/>
       <use xlink:href="#DejaVuSans-30" x="934.814453"/>
       <use xlink:href="#DejaVuSans-30" x="998.4375"/>
      </g>
     </g>
    </g>
    <g id="xtick_3">
     <g id="line2d_3">
      <g>
       <use xlink:href="#m24ae4b9518" x="535.444131" y="512.64" style="stroke: #000000; stroke-width: 0.8"/>
      </g>
     </g>
     <g id="text_3">
      <!-- 2022-10-24 00:00:00 -->
      <g transform="translate(471.720381 528.758125) scale(0.12 -0.12)">
       <defs>
        <path id="DejaVuSans-34" d="M 2419 4116 
L 825 1625 
L 2419 1625 
L 2419 4116 
z
M 2253 4666 
L 3047 4666 
L 3047 1625 
L 3713 1625 
L 3713 1100 
L 3047 1100 
L 3047 0 
L 2419 0 
L 2419 1100 
L 313 1100 
L 313 1709 
L 2253 4666 
z
" transform="scale(0.015625)"/>
       </defs>
       <use xlink:href="#DejaVuSans-32"/>
       <use xlink:href="#DejaVuSans-30" x="63.623047"/>
       <use xlink:href="#DejaVuSans-32" x="127.246094"/>
       <use xlink:href="#DejaVuSans-32" x="190.869141"/>
       <use xlink:href="#DejaVuSans-2d" x="254.492188"/>
       <use xlink:href="#DejaVuSans-31" x="290.576172"/>
       <use xlink:href="#DejaVuSans-30" x="354.199219"/>
       <use xlink:href="#DejaVuSans-2d" x="417.822266"/>
       <use xlink:href="#DejaVuSans-32" x="453.90625"/>
       <use xlink:href="#DejaVuSans-34" x="517.529297"/>
       <use xlink:href="#DejaVuSans-20" x="581.152344"/>
       <use xlink:href="#DejaVuSans-30" x="612.939453"/>
       <use xlink:href="#DejaVuSans-30" x="676.5625"/>
       <use xlink:href="#DejaVuSans-3a" x="740.185547"/>
       <use xlink:href="#DejaVuSans-30" x="773.876953"/>
       <use xlink:href="#DejaVuSans-30" x="837.5"/>
       <use xlink:href="#DejaVuSans-3a" x="901.123047"/>
       <use xlink:href="#DejaVuSans-30" x="934.814453"/>
       <use xlink:href="#DejaVuSans-30" x="998.4375"/>
      </g>
     </g>
    </g>
    <g id="xtick_4">
     <g id="line2d_4">
      <g>
       <use xlink:href="#m24ae4b9518" x="680.984038" y="512.64" style="stroke: #000000; stroke-width: 0.8"/>
      </g>
     </g>
     <g id="text_4">
      <!-- 2022-10-25 00:00:00 -->
      <g transform="translate(617.260288 528.758125) scale(0.12 -0.12)">
       <defs>
        <path id="DejaVuSans-35" d="M 691 4666 
L 3169 4666 
L 3169 4134 
L 1269 4134 
L 1269 2991 
Q 1406 3038 1543 3061 
Q 1681 3084 1819 3084 
Q 2600 3084 3056 2656 
Q 3513 2228 3513 1497 
Q 3513 744 3044 326 
Q 2575 -91 1722 -91 
Q 1428 -91 1123 -41 
Q 819 9 494 109 
L 494 744 
Q 775 591 1075 516 
Q 1375 441 1709 441 
Q 2250 441 2565 725 
Q 2881 1009 2881 1497 
Q 2881 1984 2565 2268 
Q 2250 2553 1709 2553 
Q 1456 2553 1204 2497 
Q 953 2441 691 2322 
L 691 4666 
z
" transform="scale(0.015625)"/>
       </defs>
       <use xlink:href="#DejaVuSans-32"/>
       <use xlink:href="#DejaVuSans-30" x="63.623047"/>
       <use xlink:href="#DejaVuSans-32" x="127.246094"/>
       <use xlink:href="#DejaVuSans-32" x="190.869141"/>
       <use xlink:href="#DejaVuSans-2d" x="254.492188"/>
       <use xlink:href="#DejaVuSans-31" x="290.576172"/>
       <use xlink:href="#DejaVuSans-30" x="354.199219"/>
       <use xlink:href="#DejaVuSans-2d" x="417.822266"/>
       <use xlink:href="#DejaVuSans-32" x="453.90625"/>
       <use xlink:href="#DejaVuSans-35" x="517.529297"/>
       <use xlink:href="#DejaVuSans-20" x="581.152344"/>
       <use xlink:href="#DejaVuSans-30" x="612.939453"/>
       <use xlink:href="#DejaVuSans-30" x="676.5625"/>
       <use xlink:href="#DejaVuSans-3a" x="740.185547"/>
       <use xlink:href="#DejaVuSans-30" x="773.876953"/>
       <use xlink:href="#DejaVuSans-30" x="837.5"/>
       <use xlink:href="#DejaVuSans-3a" x="901.123047"/>
       <use xlink:href="#DejaVuSans-30" x="934.814453"/>
       <use xlink:href="#DejaVuSans-30" x="998.4375"/>
      </g>
     </g>
    </g>
    <g id="xtick_5">
     <g id="line2d_5">
      <g>
       <use xlink:href="#m24ae4b9518" x="826.523944" y="512.64" style="stroke: #000000; stroke-width: 0.8"/>
      </g>
     </g>
     <g id="text_5">
      <!-- 2022-10-26 00:00:00 -->
      <g transform="translate(762.800194 528.758125) scale(0.12 -0.12)">
       <defs>
        <path id="DejaVuSans-36" d="M 2113 2584 
Q 1688 2584 1439 2293 
Q 1191 2003 1191 1497 
Q 1191 994 1439 701 
Q 1688 409 2113 409 
Q 2538 409 2786 701 
Q 3034 994 3034 1497 
Q 3034 2003 2786 2293 
Q 2538 2584 2113 2584 
z
M 3366 4563 
L 3366 3988 
Q 3128 4100 2886 4159 
Q 2644 4219 2406 4219 
Q 1781 4219 1451 3797 
Q 1122 3375 1075 2522 
Q 1259 2794 1537 2939 
Q 1816 3084 2150 3084 
Q 2853 3084 3261 2657 
Q 3669 2231 3669 1497 
Q 3669 778 3244 343 
Q 2819 -91 2113 -91 
Q 1303 -91 875 529 
Q 447 1150 447 2328 
Q 447 3434 972 4092 
Q 1497 4750 2381 4750 
Q 2619 4750 2861 4703 
Q 3103 4656 3366 4563 
z
" transform="scale(0.015625)"/>
       </defs>
       <use xlink:href="#DejaVuSans-32"/>
       <use xlink:href="#DejaVuSans-30" x="63.623047"/>
       <use xlink:href="#DejaVuSans-32" x="127.246094"/>
       <use xlink:href="#DejaVuSans-32" x="190.869141"/>
       <use xlink:href="#DejaVuSans-2d" x="254.492188"/>
       <use xlink:href="#DejaVuSans-31" x="290.576172"/>
       <use xlink:href="#DejaVuSans-30" x="354.199219"/>
       <use xlink:href="#DejaVuSans-2d" x="417.822266"/>
       <use xlink:href="#DejaVuSans-32" x="453.90625"/>
       <use xlink:href="#DejaVuSans-36" x="517.529297"/>
       <use xlink:href="#DejaVuSans-20" x="581.152344"/>
       <use xlink:href="#DejaVuSans-30" x="612.939453"/>
       <use xlink:href="#DejaVuSans-30" x="676.5625"/>
       <use xlink:href="#DejaVuSans-3a" x="740.185547"/>
       <use xlink:href="#DejaVuSans-30" x="773.876953"/>
       <use xlink:href="#DejaVuSans-30" x="837.5"/>
       <use xlink:href="#DejaVuSans-3a" x="901.123047"/>
       <use xlink:href="#DejaVuSans-30" x="934.814453"/>
       <use xlink:href="#DejaVuSans-30" x="998.4375"/>
      </g>
     </g>
    </g>
    <g id="xtick_6">
     <g id="line2d_6">
      <g>
       <use xlink:href="#m24ae4b9518" x="972.06385" y="512.64" style="stroke: #000000; stroke-width: 0.8"/>
      </g>
     </g>
     <g id="text_6">
      <!-- 2022-10-27 00:00:00 -->
      <g transform="translate(908.3401 528.758125) scale(0.12 -0.12)">
       <defs>
        <path id="DejaVuSans-37" d="M 525 4666 
L 3525 4666 
L 3525 4397 
L 1831 0 
L 1172 0 
L 2766 4134 
L 525 4134 
L 525 4666 
z
" transform="scale(0.015625)"/>
       </defs>
       <use xlink:href="#DejaVuSans-32"/>
       <use xlink:href="#DejaVuSans-30" x="63.623047"/>
       <use xlink:href="#DejaVuSans-32" x="127.246094"/>
       <use xlink:href="#DejaVuSans-32" x="190.869141"/>
       <use xlink:href="#DejaVuSans-2d" x="254.492188"/>
       <use xlink:href="#DejaVuSans-31" x="290.576172"/>
       <use xlink:href="#DejaVuSans-30" x="354.199219"/>
       <use xlink:href="#DejaVuSans-2d" x="417.822266"/>
       <use xlink:href="#DejaVuSans-32" x="453.90625"/>
       <use xlink:href="#DejaVuSans-37" x="517.529297"/>
       <use xlink:href="#DejaVuSans-20" x="581.152344"/>
       <use xlink:href="#DejaVuSans-30" x="612.939453"/>
       <use xlink:href="#DejaVuSans-30" x="676.5625"/>
       <use xlink:href="#DejaVuSans-3a" x="740.185547"/>
       <use xlink:href="#DejaVuSans-30" x="773.876953"/>
       <use xlink:href="#DejaVuSans-30" x="837.5"/>
       <use xlink:href="#DejaVuSans-3a" x="901.123047"/>
       <use xlink:href="#DejaVuSans-30" x="934.814453"/>
       <use xlink:href="#DejaVuSans-30" x="998.4375"/>
      </g>
     </g>
    </g>
    <g id="text_7">
     <!-- Date -->
     <g transform="translate(578.449219 542.852188) scale(0.1 -0.1)">
      <defs>
       <path id="DejaVuSans-44" d="M 1259 4147 
L 1259 519 
L 2022 519 
Q 2988 519 3436 956 
Q 3884 1394 3884 2338 
Q 3884 3275 3436 3711 
Q 2988 4147 2022 4147 
L 1259 4147 
z
M 628 4666 
L 1925 4666 
Q 3281 4666 3915 4102 
Q 4550 3538 4550 2338 
Q 4550 1131 3912 565 
Q 3275 0 1925 0 
L 628 0 
L 628 4666 
z
" transform="scale(0.015625)"/>
       <path id="DejaVuSans-61" d="M 2194 1759 
Q 1497 1759 1228 1600 
Q 959 1441 959 1056 
Q 959 750 1161 570 
Q 1363 391 1709 391 
Q 2188 391 2477 730 
Q 2766 1069 2766 1631 
L 2766 1759 
L 2194 1759 
z
M 3341 1997 
L 3341 0 
L 2766 0 
L 2766 531 
Q 2569 213 2275 61 
Q 1981 -91 1556 -91 
Q 1019 -91 701 211 
Q 384 513 384 1019 
Q 384 1609 779 1909 
Q 1175 2209 1959 2209 
L 2766 2209 
L 2766 2266 
Q 2766 2663 2505 2880 
Q 2244 3097 1772 3097 
Q 1472 3097 1187 3025 
Q 903 2953 641 2809 
L 641 3341 
Q 956 3463 1253 3523 
Q 1550 3584 1831 3584 
Q 2591 3584 2966 3190 
Q 3341 2797 3341 1997 
z
" transform="scale(0.015625)"/>
       <path id="DejaVuSans-74" d="M 1172 4494 
L 1172 3500 
L 2356 3500 
L 2356 3053 
L 1172 3053 
L 1172 1153 
Q 1172 725 1289 603 
Q 1406 481 1766 481 
L 2356 481 
L 2356 0 
L 1766 0 
Q 1100 0 847 248 
Q 594 497 594 1153 
L 594 3053 
L 172 3053 
L 172 3500 
L 594 3500 
L 594 4494 
L 1172 4494 
z
" transform="scale(0.015625)"/>
       <path id="DejaVuSans-65" d="M 3597 1894 
L 3597 1613 
L 953 1613 
Q 991 1019 1311 708 
Q 1631 397 2203 397 
Q 2534 397 2845 478 
Q 3156 559 3463 722 
L 3463 178 
Q 3153 47 2828 -22 
Q 2503 -91 2169 -91 
Q 1331 -91 842 396 
Q 353 884 353 1716 
Q 353 2575 817 3079 
Q 1281 3584 2069 3584 
Q 2775 3584 3186 3129 
Q 3597 2675 3597 1894 
z
M 3022 2063 
Q 3016 2534 2758 2815 
Q 2500 3097 2075 3097 
Q 1594 3097 1305 2825 
Q 1016 2553 972 2059 
L 3022 2063 
z
" transform="scale(0.015625)"/>
      </defs>
      <use xlink:href="#DejaVuSans-44"/>
      <use xlink:href="#DejaVuSans-61" x="77.001953"/>
      <use xlink:href="#DejaVuSans-74" x="138.28125"/>
      <use xlink:href="#DejaVuSans-65" x="177.490234"/>
     </g>
    </g>
   </g>
   <g id="matplotlib.axis_2">
    <g id="ytick_1">
     <g id="line2d_7">
      <defs>
       <path id="me8449e3162" d="M 0 0 
L -3.5 0 
" style="stroke: #000000; stroke-width: 0.8"/>
      </defs>
      <g>
       <use xlink:href="#me8449e3162" x="144" y="492.48" style="stroke: #000000; stroke-width: 0.8"/>
      </g>
     </g>
     <g id="text_8">
      <!-- 0.0 -->
      <g transform="translate(109.5194 499.04505) scale(0.1728 -0.1728)">
       <defs>
        <path id="DejaVuSans-2e" d="M 684 794 
L 1344 794 
L 1344 0 
L 684 0 
L 684 794 
z
" transform="scale(0.015625)"/>
       </defs>
       <use xlink:href="#DejaVuSans-30"/>
       <use xlink:href="#DejaVuSans-2e" x="63.623047"/>
       <use xlink:href="#DejaVuSans-30" x="95.410156"/>
      </g>
     </g>
    </g>
    <g id="ytick_2">
     <g id="line2d_8">
      <g>
       <use xlink:href="#me8449e3162" x="144" y="436.48" style="stroke: #000000; stroke-width: 0.8"/>
      </g>
     </g>
     <g id="text_9">
      <!-- 2.5 -->
      <g transform="translate(109.5194 443.04505) scale(0.1728 -0.1728)">
       <use xlink:href="#DejaVuSans-32"/>
       <use xlink:href="#DejaVuSans-2e" x="63.623047"/>
       <use xlink:href="#DejaVuSans-35" x="95.410156"/>
      </g>
     </g>
    </g>
    <g id="ytick_3">
     <g id="line2d_9">
      <g>
       <use xlink:href="#me8449e3162" x="144" y="380.48" style="stroke: #000000; stroke-width: 0.8"/>
      </g>
     </g>
     <g id="text_10">
      <!-- 5.0 -->
      <g transform="translate(109.5194 387.04505) scale(0.1728 -0.1728)">
       <use xlink:href="#DejaVuSans-35"/>
       <use xlink:href="#DejaVuSans-2e" x="63.623047"/>
       <use xlink:href="#DejaVuSans-30" x="95.410156"/>
      </g>
     </g>
    </g>
    <g id="ytick_4">
     <g id="line2d_10">
      <g>
       <use xlink:href="#me8449e3162" x="144" y="324.48" style="stroke: #000000; stroke-width: 0.8"/>
      </g>
     </g>
     <g id="text_11">
      <!-- 7.5 -->
      <g transform="translate(109.5194 331.04505) scale(0.1728 -0.1728)">
       <use xlink:href="#DejaVuSans-37"/>
       <use xlink:href="#DejaVuSans-2e" x="63.623047"/>
       <use xlink:href="#DejaVuSans-35" x="95.410156"/>
      </g>
     </g>
    </g>
    <g id="ytick_5">
     <g id="line2d_11">
      <g>
       <use xlink:href="#me8449e3162" x="144" y="268.48" style="stroke: #000000; stroke-width: 0.8"/>
      </g>
     </g>
     <g id="text_12">
      <!-- 10.0 -->
      <g transform="translate(98.525 275.04505) scale(0.1728 -0.1728)">
       <use xlink:href="#DejaVuSans-31"/>
       <use xlink:href="#DejaVuSans-30" x="63.623047"/>
       <use xlink:href="#DejaVuSans-2e" x="127.246094"/>
       <use xlink:href="#DejaVuSans-30" x="159.033203"/>
      </g>
     </g>
    </g>
    <g id="ytick_6">
     <g id="line2d_12">
      <g>
       <use xlink:href="#me8449e3162" x="144" y="212.48" style="stroke: #000000; stroke-width: 0.8"/>
      </g>
     </g>
     <g id="text_13">
      <!-- 12.5 -->
      <g transform="translate(98.525 219.04505) scale(0.1728 -0.1728)">
       <use xlink:href="#DejaVuSans-31"/>
       <use xlink:href="#DejaVuSans-32" x="63.623047"/>
       <use xlink:href="#DejaVuSans-2e" x="127.246094"/>
       <use xlink:href="#DejaVuSans-35" x="159.033203"/>
      </g>
     </g>
    </g>
    <g id="ytick_7">
     <g id="line2d_13">
      <g>
       <use xlink:href="#me8449e3162" x="144" y="156.48" style="stroke: #000000; stroke-width: 0.8"/>
      </g>
     </g>
     <g id="text_14">
      <!-- 15.0 -->
      <g transform="translate(98.525 163.04505) scale(0.1728 -0.1728)">
       <use xlink:href="#DejaVuSans-31"/>
       <use xlink:href="#DejaVuSans-35" x="63.623047"/>
       <use xlink:href="#DejaVuSans-2e" x="127.246094"/>
       <use xlink:href="#DejaVuSans-30" x="159.033203"/>
      </g>
     </g>
    </g>
    <g id="ytick_8">
     <g id="line2d_14">
      <g>
       <use xlink:href="#me8449e3162" x="144" y="100.48" style="stroke: #000000; stroke-width: 0.8"/>
      </g>
     </g>
     <g id="text_15">
      <!-- 17.5 -->
      <g transform="translate(98.525 107.04505) scale(0.1728 -0.1728)">
       <use xlink:href="#DejaVuSans-31"/>
       <use xlink:href="#DejaVuSans-37" x="63.623047"/>
       <use xlink:href="#DejaVuSans-2e" x="127.246094"/>
       <use xlink:href="#DejaVuSans-35" x="159.033203"/>
      </g>
     </g>
    </g>
    <g id="text_16">
     <!-- % of Reports -->
     <g transform="translate(92.445312 322.808125) rotate(-90) scale(0.1 -0.1)">
      <defs>
       <path id="DejaVuSans-25" d="M 4653 2053 
Q 4381 2053 4226 1822 
Q 4072 1591 4072 1178 
Q 4072 772 4226 539 
Q 4381 306 4653 306 
Q 4919 306 5073 539 
Q 5228 772 5228 1178 
Q 5228 1588 5073 1820 
Q 4919 2053 4653 2053 
z
M 4653 2450 
Q 5147 2450 5437 2106 
Q 5728 1763 5728 1178 
Q 5728 594 5436 251 
Q 5144 -91 4653 -91 
Q 4153 -91 3862 251 
Q 3572 594 3572 1178 
Q 3572 1766 3864 2108 
Q 4156 2450 4653 2450 
z
M 1428 4353 
Q 1159 4353 1004 4120 
Q 850 3888 850 3481 
Q 850 3069 1003 2837 
Q 1156 2606 1428 2606 
Q 1700 2606 1854 2837 
Q 2009 3069 2009 3481 
Q 2009 3884 1853 4118 
Q 1697 4353 1428 4353 
z
M 4250 4750 
L 4750 4750 
L 1831 -91 
L 1331 -91 
L 4250 4750 
z
M 1428 4750 
Q 1922 4750 2215 4408 
Q 2509 4066 2509 3481 
Q 2509 2891 2217 2550 
Q 1925 2209 1428 2209 
Q 931 2209 642 2551 
Q 353 2894 353 3481 
Q 353 4063 643 4406 
Q 934 4750 1428 4750 
z
" transform="scale(0.015625)"/>
       <path id="DejaVuSans-6f" d="M 1959 3097 
Q 1497 3097 1228 2736 
Q 959 2375 959 1747 
Q 959 1119 1226 758 
Q 1494 397 1959 397 
Q 2419 397 2687 759 
Q 2956 1122 2956 1747 
Q 2956 2369 2687 2733 
Q 2419 3097 1959 3097 
z
M 1959 3584 
Q 2709 3584 3137 3096 
Q 3566 2609 3566 1747 
Q 3566 888 3137 398 
Q 2709 -91 1959 -91 
Q 1206 -91 779 398 
Q 353 888 353 1747 
Q 353 2609 779 3096 
Q 1206 3584 1959 3584 
z
" transform="scale(0.015625)"/>
       <path id="DejaVuSans-66" d="M 2375 4863 
L 2375 4384 
L 1825 4384 
Q 1516 4384 1395 4259 
Q 1275 4134 1275 3809 
L 1275 3500 
L 2222 3500 
L 2222 3053 
L 1275 3053 
L 1275 0 
L 697 0 
L 697 3053 
L 147 3053 
L 147 3500 
L 697 3500 
L 697 3744 
Q 697 4328 969 4595 
Q 1241 4863 1831 4863 
L 2375 4863 
z
" transform="scale(0.015625)"/>
       <path id="DejaVuSans-52" d="M 2841 2188 
Q 3044 2119 3236 1894 
Q 3428 1669 3622 1275 
L 4263 0 
L 3584 0 
L 2988 1197 
Q 2756 1666 2539 1819 
Q 2322 1972 1947 1972 
L 1259 1972 
L 1259 0 
L 628 0 
L 628 4666 
L 2053 4666 
Q 2853 4666 3247 4331 
Q 3641 3997 3641 3322 
Q 3641 2881 3436 2590 
Q 3231 2300 2841 2188 
z
M 1259 4147 
L 1259 2491 
L 2053 2491 
Q 2509 2491 2742 2702 
Q 2975 2913 2975 3322 
Q 2975 3731 2742 3939 
Q 2509 4147 2053 4147 
L 1259 4147 
z
" transform="scale(0.015625)"/>
       <path id="DejaVuSans-70" d="M 1159 525 
L 1159 -1331 
L 581 -1331 
L 581 3500 
L 1159 3500 
L 1159 2969 
Q 1341 3281 1617 3432 
Q 1894 3584 2278 3584 
Q 2916 3584 3314 3078 
Q 3713 2572 3713 1747 
Q 3713 922 3314 415 
Q 2916 -91 2278 -91 
Q 1894 -91 1617 61 
Q 1341 213 1159 525 
z
M 3116 1747 
Q 3116 2381 2855 2742 
Q 2594 3103 2138 3103 
Q 1681 3103 1420 2742 
Q 1159 2381 1159 1747 
Q 1159 1113 1420 752 
Q 1681 391 2138 391 
Q 2594 391 2855 752 
Q 3116 1113 3116 1747 
z
" transform="scale(0.015625)"/>
       <path id="DejaVuSans-72" d="M 2631 2963 
Q 2534 3019 2420 3045 
Q 2306 3072 2169 3072 
Q 1681 3072 1420 2755 
Q 1159 2438 1159 1844 
L 1159 0 
L 581 0 
L 581 3500 
L 1159 3500 
L 1159 2956 
Q 1341 3275 1631 3429 
Q 1922 3584 2338 3584 
Q 2397 3584 2469 3576 
Q 2541 3569 2628 3553 
L 2631 2963 
z
" transform="scale(0.015625)"/>
       <path id="DejaVuSans-73" d="M 2834 3397 
L 2834 2853 
Q 2591 2978 2328 3040 
Q 2066 3103 1784 3103 
Q 1356 3103 1142 2972 
Q 928 2841 928 2578 
Q 928 2378 1081 2264 
Q 1234 2150 1697 2047 
L 1894 2003 
Q 2506 1872 2764 1633 
Q 3022 1394 3022 966 
Q 3022 478 2636 193 
Q 2250 -91 1575 -91 
Q 1294 -91 989 -36 
Q 684 19 347 128 
L 347 722 
Q 666 556 975 473 
Q 1284 391 1588 391 
Q 1994 391 2212 530 
Q 2431 669 2431 922 
Q 2431 1156 2273 1281 
Q 2116 1406 1581 1522 
L 1381 1569 
Q 847 1681 609 1914 
Q 372 2147 372 2553 
Q 372 3047 722 3315 
Q 1072 3584 1716 3584 
Q 2034 3584 2315 3537 
Q 2597 3491 2834 3397 
z
" transform="scale(0.015625)"/>
      </defs>
      <use xlink:href="#DejaVuSans-25"/>
      <use xlink:href="#DejaVuSans-20" x="95.019531"/>
      <use xlink:href="#DejaVuSans-6f" x="126.806641"/>
      <use xlink:href="#DejaVuSans-66" x="187.988281"/>
      <use xlink:href="#DejaVuSans-20" x="223.193359"/>
      <use xlink:href="#DejaVuSans-52" x="254.980469"/>
      <use xlink:href="#DejaVuSans-65" x="319.962891"/>
      <use xlink:href="#DejaVuSans-70" x="381.486328"/>
      <use xlink:href="#DejaVuSans-6f" x="444.962891"/>
      <use xlink:href="#DejaVuSans-72" x="506.144531"/>
      <use xlink:href="#DejaVuSans-74" x="547.257812"/>
      <use xlink:href="#DejaVuSans-73" x="586.466797"/>
     </g>
    </g>
   </g>
   <g id="line2d_15">
    <path d="M 144 470.08 
L 156.574648 470.08 
L 169.149296 470.08 
L 181.723944 470.08 
L 194.298592 470.08 
L 206.873239 470.08 
L 219.447887 470.08 
L 232.022535 470.08 
L 244.597183 470.08 
L 257.171831 470.08 
L 269.746479 470.08 
L 282.321127 470.08 
L 294.895775 470.08 
L 307.470423 470.08 
L 320.04507 470.08 
L 332.619718 470.08 
L 345.194366 470.08 
L 357.769014 470.08 
L 370.343662 470.08 
L 382.91831 470.08 
L 395.492958 470.08 
L 408.067606 470.08 
L 420.642254 470.08 
L 433.216901 470.08 
L 445.791549 470.08 
L 458.366197 470.08 
L 470.940845 470.08 
L 483.515493 470.08 
L 496.090141 470.08 
L 508.664789 470.08 
L 521.239437 470.08 
L 533.814085 470.08 
L 546.388732 470.08 
L 558.96338 470.08 
L 571.538028 470.08 
L 584.112676 470.08 
L 596.687324 470.08 
L 609.261972 470.08 
L 621.83662 470.08 
L 634.411268 470.08 
L 646.985915 470.08 
L 659.560563 470.08 
L 672.135211 470.08 
L 684.709859 470.08 
L 697.284507 470.08 
L 709.859155 470.08 
L 722.433803 470.08 
L 735.008451 470.08 
L 747.583099 470.08 
L 760.157746 470.08 
L 772.732394 470.08 
L 785.307042 470.08 
L 797.88169 470.08 
L 810.456338 470.08 
L 823.030986 470.08 
L 835.605634 470.08 
L 848.180282 470.08 
L 860.75493 470.08 
L 873.329577 470.08 
L 885.904225 470.08 
L 898.478873 470.08 
L 911.053521 470.08 
L 923.628169 470.08 
L 936.202817 470.08 
L 948.777465 470.08 
L 961.352113 470.08 
L 973.926761 470.08 
L 986.501408 470.08 
L 999.076056 470.08 
L 1011.650704 470.08 
L 1024.225352 470.08 
L 1036.8 470.08 
" clip-path="url(#p6be47e7a3d)" style="fill: none; stroke: #1f77b4; stroke-width: 2.5; stroke-linecap: square"/>
   </g>
   <g id="line2d_16">
    <path d="M 144 418.930759 
L 156.574648 418.885583 
L 169.149296 418.840407 
L 181.723944 418.795231 
L 194.298592 418.750055 
L 206.873239 418.704879 
L 219.447887 418.659703 
L 232.022535 418.614527 
L 244.597183 418.569351 
L 257.171831 418.524175 
L 269.746479 418.478999 
L 282.321127 418.433823 
L 294.895775 418.388647 
L 307.470423 418.343471 
L 320.04507 418.298296 
L 332.619718 418.25312 
L 345.194366 418.207944 
L 357.769014 418.162768 
L 370.343662 418.117592 
L 382.91831 418.072416 
L 395.492958 418.02724 
L 408.067606 417.982064 
L 420.642254 417.936888 
L 433.216901 417.891712 
L 445.791549 417.846536 
L 458.366197 417.80136 
L 470.940845 417.756184 
L 483.515493 417.711008 
L 496.090141 417.665832 
L 508.664789 417.620656 
L 521.239437 417.57548 
L 533.814085 417.530304 
L 546.388732 417.485128 
L 558.96338 417.439952 
L 571.538028 417.394776 
L 584.112676 417.3496 
L 596.687324 417.304424 
L 609.261972 417.259248 
L 621.83662 417.214072 
L 634.411268 417.168896 
L 646.985915 417.123721 
L 659.560563 417.078545 
L 672.135211 417.033369 
L 684.709859 416.988193 
L 697.284507 416.943017 
L 709.859155 416.897841 
L 722.433803 416.852665 
L 735.008451 416.807489 
L 747.583099 416.762313 
L 760.157746 416.717137 
L 772.732394 416.671961 
L 785.307042 416.626785 
L 797.88169 416.581609 
L 810.456338 416.536433 
L 823.030986 416.491257 
L 835.605634 416.446081 
L 848.180282 416.400905 
L 860.75493 416.355729 
L 873.329577 416.310553 
L 885.904225 416.265377 
L 898.478873 416.220201 
L 911.053521 416.175025 
L 923.628169 416.129849 
L 936.202817 416.084673 
L 948.777465 416.039497 
L 961.352113 415.994321 
L 973.926761 415.949145 
L 986.501408 415.90397 
L 999.076056 415.858794 
L 1011.650704 415.813618 
L 1024.225352 415.768442 
L 1036.8 415.723266 
" clip-path="url(#p6be47e7a3d)" style="fill: none; stroke: #ff7f0e; stroke-width: 2.5; stroke-linecap: square"/>
   </g>
   <g id="line2d_17">
    <path d="M 144 420.634386 
L 156.574648 420.60104 
L 169.149296 420.567695 
L 181.723944 420.53435 
L 194.298592 420.501005 
L 206.873239 420.467659 
L 219.447887 420.434314 
L 232.022535 420.400969 
L 244.597183 420.367624 
L 257.171831 420.334279 
L 269.746479 420.300933 
L 282.321127 420.267588 
L 294.895775 420.234243 
L 307.470423 420.200898 
L 320.04507 420.167552 
L 332.619718 420.134207 
L 345.194366 420.100862 
L 357.769014 420.067517 
L 370.343662 420.034172 
L 382.91831 420.000826 
L 395.492958 419.967481 
L 408.067606 419.934136 
L 420.642254 419.900791 
L 433.216901 419.867445 
L 445.791549 419.8341 
L 458.366197 419.800755 
L 470.940845 419.76741 
L 483.515493 419.734065 
L 496.090141 419.700719 
L 508.664789 419.667374 
L 521.239437 419.634029 
L 533.814085 419.600684 
L 546.388732 419.567338 
L 558.96338 419.533993 
L 571.538028 419.500648 
L 584.112676 419.467303 
L 596.687324 419.433958 
L 609.261972 419.400612 
L 621.83662 419.367267 
L 634.411268 419.333922 
L 646.985915 419.300577 
L 659.560563 419.267231 
L 672.135211 419.233886 
L 684.709859 419.200541 
L 697.284507 419.167196 
L 709.859155 419.133851 
L 722.433803 419.100505 
L 735.008451 419.06716 
L 747.583099 419.033815 
L 760.157746 419.00047 
L 772.732394 418.967124 
L 785.307042 418.933779 
L 797.88169 418.900434 
L 810.456338 418.867089 
L 823.030986 418.833744 
L 835.605634 418.800398 
L 848.180282 418.767053 
L 860.75493 418.733708 
L 873.329577 418.700363 
L 885.904225 418.667017 
L 898.478873 418.633672 
L 911.053521 418.600327 
L 923.628169 418.566982 
L 936.202817 418.533637 
L 948.777465 418.500291 
L 961.352113 418.466946 
L 973.926761 418.433601 
L 986.501408 418.400256 
L 999.076056 418.36691 
L 1011.650704 418.333565 
L 1024.225352 418.30022 
L 1036.8 418.266875 
" clip-path="url(#p6be47e7a3d)" style="fill: none; stroke: #2ca02c; stroke-width: 2.5; stroke-linecap: square"/>
   </g>
   <g id="line2d_18">
    <path d="M 144 418.930764 
L 156.574648 418.885589 
L 169.149296 418.840413 
L 181.723944 418.795237 
L 194.298592 418.750061 
L 206.873239 418.704885 
L 219.447887 418.659709 
L 232.022535 418.614533 
L 244.597183 418.569357 
L 257.171831 418.524181 
L 269.746479 418.479005 
L 282.321127 418.433829 
L 294.895775 418.388653 
L 307.470423 418.343477 
L 320.04507 418.298301 
L 332.619718 418.253126 
L 345.194366 418.20795 
L 357.769014 418.162774 
L 370.343662 418.117598 
L 382.91831 418.072422 
L 395.492958 418.027246 
L 408.067606 417.98207 
L 420.642254 417.936894 
L 433.216901 417.891718 
L 445.791549 417.846542 
L 458.366197 417.801366 
L 470.940845 417.75619 
L 483.515493 417.711014 
L 496.090141 417.665839 
L 508.664789 417.620663 
L 521.239437 417.575487 
L 533.814085 417.530311 
L 546.388732 417.485135 
L 558.96338 417.439959 
L 571.538028 417.394783 
L 584.112676 417.349607 
L 596.687324 417.304431 
L 609.261972 417.259255 
L 621.83662 417.214079 
L 634.411268 417.168903 
L 646.985915 417.123727 
L 659.560563 417.078552 
L 672.135211 417.033376 
L 684.709859 416.9882 
L 697.284507 416.943024 
L 709.859155 416.897848 
L 722.433803 416.852672 
L 735.008451 416.807496 
L 747.583099 416.76232 
L 760.157746 416.717144 
L 772.732394 416.671968 
L 785.307042 416.626792 
L 797.88169 416.581616 
L 810.456338 416.53644 
L 823.030986 416.491265 
L 835.605634 416.446089 
L 848.180282 416.400913 
L 860.75493 416.355737 
L 873.329577 416.310561 
L 885.904225 416.265385 
L 898.478873 416.220209 
L 911.053521 416.175033 
L 923.628169 416.129857 
L 936.202817 416.084681 
L 948.777465 416.039505 
L 961.352113 415.994329 
L 973.926761 415.949153 
L 986.501408 415.903977 
L 999.076056 415.858802 
L 1011.650704 415.813626 
L 1024.225352 415.76845 
L 1036.8 415.723274 
" clip-path="url(#p6be47e7a3d)" style="fill: none; stroke: #d62728; stroke-width: 2.5; stroke-linecap: square"/>
   </g>
   <g id="line2d_19">
    <path d="M 144 418.930762 
L 156.574648 418.885586 
L 169.149296 418.84041 
L 181.723944 418.795234 
L 194.298592 418.750058 
L 206.873239 418.704882 
L 219.447887 418.659706 
L 232.022535 418.61453 
L 244.597183 418.569354 
L 257.171831 418.524178 
L 269.746479 418.479002 
L 282.321127 418.433826 
L 294.895775 418.38865 
L 307.470423 418.343474 
L 320.04507 418.298299 
L 332.619718 418.253123 
L 345.194366 418.207947 
L 357.769014 418.162771 
L 370.343662 418.117595 
L 382.91831 418.072419 
L 395.492958 418.027243 
L 408.067606 417.982067 
L 420.642254 417.936891 
L 433.216901 417.891715 
L 445.791549 417.846539 
L 458.366197 417.801363 
L 470.940845 417.756187 
L 483.515493 417.711011 
L 496.090141 417.665835 
L 508.664789 417.620659 
L 521.239437 417.575483 
L 533.814085 417.530307 
L 546.388732 417.485132 
L 558.96338 417.439956 
L 571.538028 417.39478 
L 584.112676 417.349604 
L 596.687324 417.304428 
L 609.261972 417.259252 
L 621.83662 417.214076 
L 634.411268 417.1689 
L 646.985915 417.123724 
L 659.560563 417.078548 
L 672.135211 417.033372 
L 684.709859 416.988196 
L 697.284507 416.94302 
L 709.859155 416.897844 
L 722.433803 416.852668 
L 735.008451 416.807492 
L 747.583099 416.762316 
L 760.157746 416.71714 
L 772.732394 416.671965 
L 785.307042 416.626789 
L 797.88169 416.581613 
L 810.456338 416.536437 
L 823.030986 416.491261 
L 835.605634 416.446085 
L 848.180282 416.400909 
L 860.75493 416.355733 
L 873.329577 416.310557 
L 885.904225 416.265381 
L 898.478873 416.220205 
L 911.053521 416.175029 
L 923.628169 416.129853 
L 936.202817 416.084677 
L 948.777465 416.039501 
L 961.352113 415.994325 
L 973.926761 415.949149 
L 986.501408 415.903974 
L 999.076056 415.858798 
L 1011.650704 415.813622 
L 1024.225352 415.768446 
L 1036.8 415.72327 
" clip-path="url(#p6be47e7a3d)" style="fill: none; stroke: #9467bd; stroke-width: 2.5; stroke-linecap: square"/>
   </g>
   <g id="line2d_20">
    <path d="M 144 443.333859 
L 156.574648 443.333859 
L 169.149296 443.333859 
L 181.723944 443.333859 
L 194.298592 443.333859 
L 206.873239 443.333859 
L 219.447887 443.333859 
L 232.022535 443.333859 
L 244.597183 443.333859 
L 257.171831 443.333859 
L 269.746479 443.333859 
L 282.321127 443.333859 
L 294.895775 443.333859 
L 307.470423 443.333859 
L 320.04507 443.333859 
L 332.619718 443.333859 
L 345.194366 443.333859 
L 357.769014 443.333859 
L 370.343662 443.333859 
L 382.91831 443.333859 
L 395.492958 443.333859 
L 408.067606 443.333859 
L 420.642254 443.333859 
L 433.216901 443.333859 
L 445.791549 443.333859 
L 458.366197 443.333859 
L 470.940845 443.333859 
L 483.515493 443.333859 
L 496.090141 443.333859 
L 508.664789 443.333859 
L 521.239437 443.333859 
L 533.814085 443.333859 
L 546.388732 443.333859 
L 558.96338 443.333859 
L 571.538028 443.333859 
L 584.112676 443.333859 
L 596.687324 443.333859 
L 609.261972 443.333859 
L 621.83662 443.333859 
L 634.411268 443.333859 
L 646.985915 443.333859 
L 659.560563 443.333859 
L 672.135211 443.333859 
L 684.709859 443.333859 
L 697.284507 443.333859 
L 709.859155 443.333859 
L 722.433803 443.333859 
L 735.008451 443.333859 
L 747.583099 443.333859 
L 760.157746 443.333859 
L 772.732394 443.333859 
L 785.307042 443.333859 
L 797.88169 443.333859 
L 810.456338 443.333859 
L 823.030986 443.333859 
L 835.605634 443.333859 
L 848.180282 443.333859 
L 860.75493 443.333859 
L 873.329577 443.333859 
L 885.904225 443.333859 
L 898.478873 443.333859 
L 911.053521 443.333859 
L 923.628169 443.333859 
L 936.202817 443.333859 
L 948.777465 443.333859 
L 961.352113 443.333859 
L 973.926761 443.333859 
L 986.501408 443.333859 
L 999.076056 443.333859 
L 1011.650704 443.333859 
L 1024.225352 443.333859 
L 1036.8 443.333859 
" clip-path="url(#p6be47e7a3d)" style="fill: none; stroke: #8c564b; stroke-width: 2.5; stroke-linecap: square"/>
   </g>
   <g id="line2d_21">
    <path d="M 144 470.08 
L 156.574648 470.08 
L 169.149296 470.08 
L 181.723944 470.08 
L 194.298592 470.08 
L 206.873239 470.08 
L 219.447887 470.08 
L 232.022535 470.08 
L 244.597183 470.08 
L 257.171831 470.08 
L 269.746479 470.08 
L 282.321127 470.08 
L 294.895775 470.08 
L 307.470423 470.08 
L 320.04507 470.08 
L 332.619718 470.08 
L 345.194366 470.08 
L 357.769014 470.08 
L 370.343662 470.08 
L 382.91831 470.08 
L 395.492958 470.08 
L 408.067606 470.08 
L 420.642254 470.08 
L 433.216901 470.08 
L 445.791549 470.08 
L 458.366197 470.08 
L 470.940845 470.08 
L 483.515493 470.08 
L 496.090141 470.08 
L 508.664789 470.08 
L 521.239437 470.08 
L 533.814085 470.08 
L 546.388732 470.08 
L 558.96338 470.08 
L 571.538028 470.08 
L 584.112676 470.08 
L 596.687324 470.08 
L 609.261972 470.08 
L 621.83662 470.08 
L 634.411268 470.08 
L 646.985915 470.08 
L 659.560563 470.08 
L 672.135211 470.08 
L 684.709859 470.08 
L 697.284507 470.08 
L 709.859155 470.08 
L 722.433803 470.08 
L 735.008451 470.08 
L 747.583099 470.08 
L 760.157746 470.08 
L 772.732394 470.08 
L 785.307042 470.08 
L 797.88169 470.08 
L 810.456338 470.08 
L 823.030986 470.08 
L 835.605634 470.08 
L 848.180282 470.08 
L 860.75493 470.08 
L 873.329577 470.08 
L 885.904225 470.08 
L 898.478873 470.08 
L 911.053521 470.08 
L 923.628169 470.08 
L 936.202817 470.08 
L 948.777465 470.08 
L 961.352113 470.08 
L 973.926761 470.08 
L 986.501408 470.08 
L 999.076056 470.08 
L 1011.650704 470.08 
L 1024.225352 470.08 
L 1036.8 470.08 
" clip-path="url(#p6be47e7a3d)" style="fill: none; stroke: #e377c2; stroke-width: 2.5; stroke-linecap: square"/>
   </g>
   <g id="line2d_22">
    <path d="M 144 422.086549 
L 156.574648 422.086549 
L 169.149296 422.086549 
L 181.723944 422.086549 
L 194.298592 422.086549 
L 206.873239 422.086549 
L 219.447887 422.086549 
L 232.022535 422.086549 
L 244.597183 422.086549 
L 257.171831 422.086549 
L 269.746479 422.086549 
L 282.321127 422.086549 
L 294.895775 422.086549 
L 307.470423 422.086549 
L 320.04507 422.086549 
L 332.619718 422.086549 
L 345.194366 422.086549 
L 357.769014 422.086549 
L 370.343662 422.086549 
L 382.91831 422.086549 
L 395.492958 422.086549 
L 408.067606 422.086549 
L 420.642254 422.086549 
L 433.216901 422.086549 
L 445.791549 422.086549 
L 458.366197 422.086549 
L 470.940845 422.086549 
L 483.515493 422.086549 
L 496.090141 422.086549 
L 508.664789 422.086549 
L 521.239437 422.086549 
L 533.814085 422.086549 
L 546.388732 422.086549 
L 558.96338 422.086549 
L 571.538028 422.086549 
L 584.112676 422.086549 
L 596.687324 422.086549 
L 609.261972 422.086549 
L 621.83662 422.086549 
L 634.411268 422.086549 
L 646.985915 422.086549 
L 659.560563 422.086549 
L 672.135211 422.086549 
L 684.709859 422.086549 
L 697.284507 422.086549 
L 709.859155 422.086549 
L 722.433803 422.086549 
L 735.008451 422.086549 
L 747.583099 422.086549 
L 760.157746 422.086549 
L 772.732394 422.086549 
L 785.307042 422.086549 
L 797.88169 422.086549 
L 810.456338 422.086549 
L 823.030986 422.086549 
L 835.605634 422.086549 
L 848.180282 422.086549 
L 860.75493 422.086549 
L 873.329577 422.086549 
L 885.904225 422.086549 
L 898.478873 422.086549 
L 911.053521 422.086549 
L 923.628169 422.086549 
L 936.202817 422.086549 
L 948.777465 422.086549 
L 961.352113 422.086549 
L 973.926761 422.086549 
L 986.501408 422.086549 
L 999.076056 422.086549 
L 1011.650704 422.086549 
L 1024.225352 422.086549 
L 1036.8 422.086549 
" clip-path="url(#p6be47e7a3d)" style="fill: none; stroke: #7f7f7f; stroke-width: 2.5; stroke-linecap: square"/>
   </g>
   <g id="line2d_23">
    <path d="M 144 428.369655 
L 156.574648 428.369655 
L 169.149296 428.369655 
L 181.723944 428.369655 
L 194.298592 428.369655 
L 206.873239 428.369655 
L 219.447887 428.369655 
L 232.022535 428.369655 
L 244.597183 428.369655 
L 257.171831 428.369655 
L 269.746479 428.369655 
L 282.321127 428.369655 
L 294.895775 428.369655 
L 307.470423 428.369655 
L 320.04507 428.369655 
L 332.619718 428.369655 
L 345.194366 428.369655 
L 357.769014 428.369655 
L 370.343662 428.369655 
L 382.91831 428.369655 
L 395.492958 428.369655 
L 408.067606 428.369655 
L 420.642254 428.369655 
L 433.216901 428.369655 
L 445.791549 428.369655 
L 458.366197 428.369655 
L 470.940845 428.369655 
L 483.515493 428.369655 
L 496.090141 428.369655 
L 508.664789 428.369655 
L 521.239437 428.369655 
L 533.814085 428.369655 
L 546.388732 428.369655 
L 558.96338 428.369655 
L 571.538028 428.369655 
L 584.112676 428.369655 
L 596.687324 428.369655 
L 609.261972 428.369655 
L 621.83662 428.369655 
L 634.411268 428.369655 
L 646.985915 428.369655 
L 659.560563 428.369655 
L 672.135211 428.369655 
L 684.709859 428.369655 
L 697.284507 428.369655 
L 709.859155 428.369655 
L 722.433803 428.369655 
L 735.008451 428.369655 
L 747.583099 428.369655 
L 760.157746 428.369655 
L 772.732394 428.369655 
L 785.307042 428.369655 
L 797.88169 428.369655 
L 810.456338 428.369655 
L 823.030986 428.369655 
L 835.605634 428.369655 
L 848.180282 428.369655 
L 860.75493 428.369655 
L 873.329577 428.369655 
L 885.904225 428.369655 
L 898.478873 428.369655 
L 911.053521 428.369655 
L 923.628169 428.369655 
L 936.202817 428.369655 
L 948.777465 428.369655 
L 961.352113 428.369655 
L 973.926761 428.369655 
L 986.501408 428.369655 
L 999.076056 428.369655 
L 1011.650704 428.369655 
L 1024.225352 428.369655 
L 1036.8 428.369655 
" clip-path="url(#p6be47e7a3d)" style="fill: none; stroke: #bcbd22; stroke-width: 2.5; stroke-linecap: square"/>
   </g>
   <g id="patch_3">
    <path d="M 144 512.64 
L 144 69.12 
" style="fill: none; stroke: #000000; stroke-width: 0.8; stroke-linejoin: miter; stroke-linecap: square"/>
   </g>
   <g id="patch_4">
    <path d="M 144 512.64 
L 1036.8 512.64 
" style="fill: none; stroke: #000000; stroke-width: 0.8; stroke-linejoin: miter; stroke-linecap: square"/>
   </g>
   <g id="text_17">
    <!-- Model Prediction: % of Games that ended in Fail Over Time -->
    <g transform="translate(413.533125 63.12) scale(0.12 -0.12)">
     <defs>
      <path id="DejaVuSans-4d" d="M 628 4666 
L 1569 4666 
L 2759 1491 
L 3956 4666 
L 4897 4666 
L 4897 0 
L 4281 0 
L 4281 4097 
L 3078 897 
L 2444 897 
L 1241 4097 
L 1241 0 
L 628 0 
L 628 4666 
z
" transform="scale(0.015625)"/>
      <path id="DejaVuSans-64" d="M 2906 2969 
L 2906 4863 
L 3481 4863 
L 3481 0 
L 2906 0 
L 2906 525 
Q 2725 213 2448 61 
Q 2172 -91 1784 -91 
Q 1150 -91 751 415 
Q 353 922 353 1747 
Q 353 2572 751 3078 
Q 1150 3584 1784 3584 
Q 2172 3584 2448 3432 
Q 2725 3281 2906 2969 
z
M 947 1747 
Q 947 1113 1208 752 
Q 1469 391 1925 391 
Q 2381 391 2643 752 
Q 2906 1113 2906 1747 
Q 2906 2381 2643 2742 
Q 2381 3103 1925 3103 
Q 1469 3103 1208 2742 
Q 947 2381 947 1747 
z
" transform="scale(0.015625)"/>
      <path id="DejaVuSans-6c" d="M 603 4863 
L 1178 4863 
L 1178 0 
L 603 0 
L 603 4863 
z
" transform="scale(0.015625)"/>
      <path id="DejaVuSans-50" d="M 1259 4147 
L 1259 2394 
L 2053 2394 
Q 2494 2394 2734 2622 
Q 2975 2850 2975 3272 
Q 2975 3691 2734 3919 
Q 2494 4147 2053 4147 
L 1259 4147 
z
M 628 4666 
L 2053 4666 
Q 2838 4666 3239 4311 
Q 3641 3956 3641 3272 
Q 3641 2581 3239 2228 
Q 2838 1875 2053 1875 
L 1259 1875 
L 1259 0 
L 628 0 
L 628 4666 
z
" transform="scale(0.015625)"/>
      <path id="DejaVuSans-69" d="M 603 3500 
L 1178 3500 
L 1178 0 
L 603 0 
L 603 3500 
z
M 603 4863 
L 1178 4863 
L 1178 4134 
L 603 4134 
L 603 4863 
z
" transform="scale(0.015625)"/>
      <path id="DejaVuSans-63" d="M 3122 3366 
L 3122 2828 
Q 2878 2963 2633 3030 
Q 2388 3097 2138 3097 
Q 1578 3097 1268 2742 
Q 959 2388 959 1747 
Q 959 1106 1268 751 
Q 1578 397 2138 397 
Q 2388 397 2633 464 
Q 2878 531 3122 666 
L 3122 134 
Q 2881 22 2623 -34 
Q 2366 -91 2075 -91 
Q 1284 -91 818 406 
Q 353 903 353 1747 
Q 353 2603 823 3093 
Q 1294 3584 2113 3584 
Q 2378 3584 2631 3529 
Q 2884 3475 3122 3366 
z
" transform="scale(0.015625)"/>
      <path id="DejaVuSans-6e" d="M 3513 2113 
L 3513 0 
L 2938 0 
L 2938 2094 
Q 2938 2591 2744 2837 
Q 2550 3084 2163 3084 
Q 1697 3084 1428 2787 
Q 1159 2491 1159 1978 
L 1159 0 
L 581 0 
L 581 3500 
L 1159 3500 
L 1159 2956 
Q 1366 3272 1645 3428 
Q 1925 3584 2291 3584 
Q 2894 3584 3203 3211 
Q 3513 2838 3513 2113 
z
" transform="scale(0.015625)"/>
      <path id="DejaVuSans-47" d="M 3809 666 
L 3809 1919 
L 2778 1919 
L 2778 2438 
L 4434 2438 
L 4434 434 
Q 4069 175 3628 42 
Q 3188 -91 2688 -91 
Q 1594 -91 976 548 
Q 359 1188 359 2328 
Q 359 3472 976 4111 
Q 1594 4750 2688 4750 
Q 3144 4750 3555 4637 
Q 3966 4525 4313 4306 
L 4313 3634 
Q 3963 3931 3569 4081 
Q 3175 4231 2741 4231 
Q 1884 4231 1454 3753 
Q 1025 3275 1025 2328 
Q 1025 1384 1454 906 
Q 1884 428 2741 428 
Q 3075 428 3337 486 
Q 3600 544 3809 666 
z
" transform="scale(0.015625)"/>
      <path id="DejaVuSans-6d" d="M 3328 2828 
Q 3544 3216 3844 3400 
Q 4144 3584 4550 3584 
Q 5097 3584 5394 3201 
Q 5691 2819 5691 2113 
L 5691 0 
L 5113 0 
L 5113 2094 
Q 5113 2597 4934 2840 
Q 4756 3084 4391 3084 
Q 3944 3084 3684 2787 
Q 3425 2491 3425 1978 
L 3425 0 
L 2847 0 
L 2847 2094 
Q 2847 2600 2669 2842 
Q 2491 3084 2119 3084 
Q 1678 3084 1418 2786 
Q 1159 2488 1159 1978 
L 1159 0 
L 581 0 
L 581 3500 
L 1159 3500 
L 1159 2956 
Q 1356 3278 1631 3431 
Q 1906 3584 2284 3584 
Q 2666 3584 2933 3390 
Q 3200 3197 3328 2828 
z
" transform="scale(0.015625)"/>
      <path id="DejaVuSans-68" d="M 3513 2113 
L 3513 0 
L 2938 0 
L 2938 2094 
Q 2938 2591 2744 2837 
Q 2550 3084 2163 3084 
Q 1697 3084 1428 2787 
Q 1159 2491 1159 1978 
L 1159 0 
L 581 0 
L 581 4863 
L 1159 4863 
L 1159 2956 
Q 1366 3272 1645 3428 
Q 1925 3584 2291 3584 
Q 2894 3584 3203 3211 
Q 3513 2838 3513 2113 
z
" transform="scale(0.015625)"/>
      <path id="DejaVuSans-46" d="M 628 4666 
L 3309 4666 
L 3309 4134 
L 1259 4134 
L 1259 2759 
L 3109 2759 
L 3109 2228 
L 1259 2228 
L 1259 0 
L 628 0 
L 628 4666 
z
" transform="scale(0.015625)"/>
      <path id="DejaVuSans-4f" d="M 2522 4238 
Q 1834 4238 1429 3725 
Q 1025 3213 1025 2328 
Q 1025 1447 1429 934 
Q 1834 422 2522 422 
Q 3209 422 3611 934 
Q 4013 1447 4013 2328 
Q 4013 3213 3611 3725 
Q 3209 4238 2522 4238 
z
M 2522 4750 
Q 3503 4750 4090 4092 
Q 4678 3434 4678 2328 
Q 4678 1225 4090 567 
Q 3503 -91 2522 -91 
Q 1538 -91 948 565 
Q 359 1222 359 2328 
Q 359 3434 948 4092 
Q 1538 4750 2522 4750 
z
" transform="scale(0.015625)"/>
      <path id="DejaVuSans-76" d="M 191 3500 
L 800 3500 
L 1894 563 
L 2988 3500 
L 3597 3500 
L 2284 0 
L 1503 0 
L 191 3500 
z
" transform="scale(0.015625)"/>
      <path id="DejaVuSans-54" d="M -19 4666 
L 3928 4666 
L 3928 4134 
L 2272 4134 
L 2272 0 
L 1638 0 
L 1638 4134 
L -19 4134 
L -19 4666 
z
" transform="scale(0.015625)"/>
     </defs>
     <use xlink:href="#DejaVuSans-4d"/>
     <use xlink:href="#DejaVuSans-6f" x="86.279297"/>
     <use xlink:href="#DejaVuSans-64" x="147.460938"/>
     <use xlink:href="#DejaVuSans-65" x="210.9375"/>
     <use xlink:href="#DejaVuSans-6c" x="272.460938"/>
     <use xlink:href="#DejaVuSans-20" x="300.244141"/>
     <use xlink:href="#DejaVuSans-50" x="332.03125"/>
     <use xlink:href="#DejaVuSans-72" x="390.583984"/>
     <use xlink:href="#DejaVuSans-65" x="429.447266"/>
     <use xlink:href="#DejaVuSans-64" x="490.970703"/>
     <use xlink:href="#DejaVuSans-69" x="554.447266"/>
     <use xlink:href="#DejaVuSans-63" x="582.230469"/>
     <use xlink:href="#DejaVuSans-74" x="637.210938"/>
     <use xlink:href="#DejaVuSans-69" x="676.419922"/>
     <use xlink:href="#DejaVuSans-6f" x="704.203125"/>
     <use xlink:href="#DejaVuSans-6e" x="765.384766"/>
     <use xlink:href="#DejaVuSans-3a" x="828.763672"/>
     <use xlink:href="#DejaVuSans-20" x="862.455078"/>
     <use xlink:href="#DejaVuSans-25" x="894.242188"/>
     <use xlink:href="#DejaVuSans-20" x="989.261719"/>
     <use xlink:href="#DejaVuSans-6f" x="1021.048828"/>
     <use xlink:href="#DejaVuSans-66" x="1082.230469"/>
     <use xlink:href="#DejaVuSans-20" x="1117.435547"/>
     <use xlink:href="#DejaVuSans-47" x="1149.222656"/>
     <use xlink:href="#DejaVuSans-61" x="1226.712891"/>
     <use xlink:href="#DejaVuSans-6d" x="1287.992188"/>
     <use xlink:href="#DejaVuSans-65" x="1385.404297"/>
     <use xlink:href="#DejaVuSans-73" x="1446.927734"/>
     <use xlink:href="#DejaVuSans-20" x="1499.027344"/>
     <use xlink:href="#DejaVuSans-74" x="1530.814453"/>
     <use xlink:href="#DejaVuSans-68" x="1570.023438"/>
     <use xlink:href="#DejaVuSans-61" x="1633.402344"/>
     <use xlink:href="#DejaVuSans-74" x="1694.681641"/>
     <use xlink:href="#DejaVuSans-20" x="1733.890625"/>
     <use xlink:href="#DejaVuSans-65" x="1765.677734"/>
     <use xlink:href="#DejaVuSans-6e" x="1827.201172"/>
     <use xlink:href="#DejaVuSans-64" x="1890.580078"/>
     <use xlink:href="#DejaVuSans-65" x="1954.056641"/>
     <use xlink:href="#DejaVuSans-64" x="2015.580078"/>
     <use xlink:href="#DejaVuSans-20" x="2079.056641"/>
     <use xlink:href="#DejaVuSans-69" x="2110.84375"/>
     <use xlink:href="#DejaVuSans-6e" x="2138.626953"/>
     <use xlink:href="#DejaVuSans-20" x="2202.005859"/>
     <use xlink:href="#DejaVuSans-46" x="2233.792969"/>
     <use xlink:href="#DejaVuSans-61" x="2282.1875"/>
     <use xlink:href="#DejaVuSans-69" x="2343.466797"/>
     <use xlink:href="#DejaVuSans-6c" x="2371.25"/>
     <use xlink:href="#DejaVuSans-20" x="2399.033203"/>
     <use xlink:href="#DejaVuSans-4f" x="2430.820312"/>
     <use xlink:href="#DejaVuSans-76" x="2509.53125"/>
     <use xlink:href="#DejaVuSans-65" x="2568.710938"/>
     <use xlink:href="#DejaVuSans-72" x="2630.234375"/>
     <use xlink:href="#DejaVuSans-20" x="2671.347656"/>
     <use xlink:href="#DejaVuSans-54" x="2703.134766"/>
     <use xlink:href="#DejaVuSans-69" x="2761.09375"/>
     <use xlink:href="#DejaVuSans-6d" x="2788.876953"/>
     <use xlink:href="#DejaVuSans-65" x="2886.289062"/>
    </g>
   </g>
  </g>
  <g id="legend_1">
   <g id="patch_5">
    <path d="M 984.882812 154.78125 
L 1145 154.78125 
Q 1147 154.78125 1147 152.78125 
L 1147 7 
Q 1147 5 1145 5 
L 984.882812 5 
Q 982.882812 5 982.882812 7 
L 982.882812 152.78125 
Q 982.882812 154.78125 984.882812 154.78125 
z
" style="fill: #ffffff; opacity: 0.8; stroke: #cccccc; stroke-linejoin: miter"/>
   </g>
   <g id="PathCollection_2">
    <g>
     <use xlink:href="#m9d0cfd7a0c" x="996.882812" y="13.973438" style="fill: #1f77b4; stroke: #1f77b4"/>
    </g>
   </g>
   <g id="text_18">
    <!-- Ground Truth -->
    <g transform="translate(1014.882812 16.598438) scale(0.1 -0.1)">
     <defs>
      <path id="DejaVuSans-75" d="M 544 1381 
L 544 3500 
L 1119 3500 
L 1119 1403 
Q 1119 906 1312 657 
Q 1506 409 1894 409 
Q 2359 409 2629 706 
Q 2900 1003 2900 1516 
L 2900 3500 
L 3475 3500 
L 3475 0 
L 2900 0 
L 2900 538 
Q 2691 219 2414 64 
Q 2138 -91 1772 -91 
Q 1169 -91 856 284 
Q 544 659 544 1381 
z
M 1991 3584 
L 1991 3584 
z
" transform="scale(0.015625)"/>
     </defs>
     <use xlink:href="#DejaVuSans-47"/>
     <use xlink:href="#DejaVuSans-72" x="77.490234"/>
     <use xlink:href="#DejaVuSans-6f" x="116.353516"/>
     <use xlink:href="#DejaVuSans-75" x="177.535156"/>
     <use xlink:href="#DejaVuSans-6e" x="240.914062"/>
     <use xlink:href="#DejaVuSans-64" x="304.292969"/>
     <use xlink:href="#DejaVuSans-20" x="367.769531"/>
     <use xlink:href="#DejaVuSans-54" x="399.556641"/>
     <use xlink:href="#DejaVuSans-72" x="445.890625"/>
     <use xlink:href="#DejaVuSans-75" x="487.003906"/>
     <use xlink:href="#DejaVuSans-74" x="550.382812"/>
     <use xlink:href="#DejaVuSans-68" x="589.591797"/>
    </g>
   </g>
   <g id="line2d_24">
    <path d="M 986.882812 27.776563 
L 996.882812 27.776563 
L 1006.882812 27.776563 
" style="fill: none; stroke: #1f77b4; stroke-width: 2.5; stroke-linecap: square"/>
   </g>
   <g id="text_19">
    <!-- K-nn -->
    <g transform="translate(1014.882812 31.276563) scale(0.1 -0.1)">
     <defs>
      <path id="DejaVuSans-4b" d="M 628 4666 
L 1259 4666 
L 1259 2694 
L 3353 4666 
L 4166 4666 
L 1850 2491 
L 4331 0 
L 3500 0 
L 1259 2247 
L 1259 0 
L 628 0 
L 628 4666 
z
" transform="scale(0.015625)"/>
     </defs>
     <use xlink:href="#DejaVuSans-4b"/>
     <use xlink:href="#DejaVuSans-2d" x="55.076172"/>
     <use xlink:href="#DejaVuSans-6e" x="91.160156"/>
     <use xlink:href="#DejaVuSans-6e" x="154.539062"/>
    </g>
   </g>
   <g id="line2d_25">
    <path d="M 986.882812 42.454688 
L 996.882812 42.454688 
L 1006.882812 42.454688 
" style="fill: none; stroke: #ff7f0e; stroke-width: 2.5; stroke-linecap: square"/>
   </g>
   <g id="text_20">
    <!-- Linear Regression -->
    <g transform="translate(1014.882812 45.954688) scale(0.1 -0.1)">
     <defs>
      <path id="DejaVuSans-4c" d="M 628 4666 
L 1259 4666 
L 1259 531 
L 3531 531 
L 3531 0 
L 628 0 
L 628 4666 
z
" transform="scale(0.015625)"/>
      <path id="DejaVuSans-67" d="M 2906 1791 
Q 2906 2416 2648 2759 
Q 2391 3103 1925 3103 
Q 1463 3103 1205 2759 
Q 947 2416 947 1791 
Q 947 1169 1205 825 
Q 1463 481 1925 481 
Q 2391 481 2648 825 
Q 2906 1169 2906 1791 
z
M 3481 434 
Q 3481 -459 3084 -895 
Q 2688 -1331 1869 -1331 
Q 1566 -1331 1297 -1286 
Q 1028 -1241 775 -1147 
L 775 -588 
Q 1028 -725 1275 -790 
Q 1522 -856 1778 -856 
Q 2344 -856 2625 -561 
Q 2906 -266 2906 331 
L 2906 616 
Q 2728 306 2450 153 
Q 2172 0 1784 0 
Q 1141 0 747 490 
Q 353 981 353 1791 
Q 353 2603 747 3093 
Q 1141 3584 1784 3584 
Q 2172 3584 2450 3431 
Q 2728 3278 2906 2969 
L 2906 3500 
L 3481 3500 
L 3481 434 
z
" transform="scale(0.015625)"/>
     </defs>
     <use xlink:href="#DejaVuSans-4c"/>
     <use xlink:href="#DejaVuSans-69" x="55.712891"/>
     <use xlink:href="#DejaVuSans-6e" x="83.496094"/>
     <use xlink:href="#DejaVuSans-65" x="146.875"/>
     <use xlink:href="#DejaVuSans-61" x="208.398438"/>
     <use xlink:href="#DejaVuSans-72" x="269.677734"/>
     <use xlink:href="#DejaVuSans-20" x="310.791016"/>
     <use xlink:href="#DejaVuSans-52" x="342.578125"/>
     <use xlink:href="#DejaVuSans-65" x="407.560547"/>
     <use xlink:href="#DejaVuSans-67" x="469.083984"/>
     <use xlink:href="#DejaVuSans-72" x="532.560547"/>
     <use xlink:href="#DejaVuSans-65" x="571.423828"/>
     <use xlink:href="#DejaVuSans-73" x="632.947266"/>
     <use xlink:href="#DejaVuSans-73" x="685.046875"/>
     <use xlink:href="#DejaVuSans-69" x="737.146484"/>
     <use xlink:href="#DejaVuSans-6f" x="764.929688"/>
     <use xlink:href="#DejaVuSans-6e" x="826.111328"/>
    </g>
   </g>
   <g id="line2d_26">
    <path d="M 986.882812 57.132812 
L 996.882812 57.132812 
L 1006.882812 57.132812 
" style="fill: none; stroke: #2ca02c; stroke-width: 2.5; stroke-linecap: square"/>
   </g>
   <g id="text_21">
    <!-- Ridge -->
    <g transform="translate(1014.882812 60.632812) scale(0.1 -0.1)">
     <use xlink:href="#DejaVuSans-52"/>
     <use xlink:href="#DejaVuSans-69" x="69.482422"/>
     <use xlink:href="#DejaVuSans-64" x="97.265625"/>
     <use xlink:href="#DejaVuSans-67" x="160.742188"/>
     <use xlink:href="#DejaVuSans-65" x="224.21875"/>
    </g>
   </g>
   <g id="line2d_27">
    <path d="M 986.882812 71.810938 
L 996.882812 71.810938 
L 1006.882812 71.810938 
" style="fill: none; stroke: #d62728; stroke-width: 2.5; stroke-linecap: square"/>
   </g>
   <g id="text_22">
    <!-- Lasso -->
    <g transform="translate(1014.882812 75.310938) scale(0.1 -0.1)">
     <use xlink:href="#DejaVuSans-4c"/>
     <use xlink:href="#DejaVuSans-61" x="55.712891"/>
     <use xlink:href="#DejaVuSans-73" x="116.992188"/>
     <use xlink:href="#DejaVuSans-73" x="169.091797"/>
     <use xlink:href="#DejaVuSans-6f" x="221.191406"/>
    </g>
   </g>
   <g id="line2d_28">
    <path d="M 986.882812 86.489063 
L 996.882812 86.489063 
L 1006.882812 86.489063 
" style="fill: none; stroke: #9467bd; stroke-width: 2.5; stroke-linecap: square"/>
   </g>
   <g id="text_23">
    <!-- Elastic Net -->
    <g transform="translate(1014.882812 89.989063) scale(0.1 -0.1)">
     <defs>
      <path id="DejaVuSans-45" d="M 628 4666 
L 3578 4666 
L 3578 4134 
L 1259 4134 
L 1259 2753 
L 3481 2753 
L 3481 2222 
L 1259 2222 
L 1259 531 
L 3634 531 
L 3634 0 
L 628 0 
L 628 4666 
z
" transform="scale(0.015625)"/>
      <path id="DejaVuSans-4e" d="M 628 4666 
L 1478 4666 
L 3547 763 
L 3547 4666 
L 4159 4666 
L 4159 0 
L 3309 0 
L 1241 3903 
L 1241 0 
L 628 0 
L 628 4666 
z
" transform="scale(0.015625)"/>
     </defs>
     <use xlink:href="#DejaVuSans-45"/>
     <use xlink:href="#DejaVuSans-6c" x="63.183594"/>
     <use xlink:href="#DejaVuSans-61" x="90.966797"/>
     <use xlink:href="#DejaVuSans-73" x="152.246094"/>
     <use xlink:href="#DejaVuSans-74" x="204.345703"/>
     <use xlink:href="#DejaVuSans-69" x="243.554688"/>
     <use xlink:href="#DejaVuSans-63" x="271.337891"/>
     <use xlink:href="#DejaVuSans-20" x="326.318359"/>
     <use xlink:href="#DejaVuSans-4e" x="358.105469"/>
     <use xlink:href="#DejaVuSans-65" x="432.910156"/>
     <use xlink:href="#DejaVuSans-74" x="494.433594"/>
    </g>
   </g>
   <g id="line2d_29">
    <path d="M 986.882812 101.167188 
L 996.882812 101.167188 
L 1006.882812 101.167188 
" style="fill: none; stroke: #8c564b; stroke-width: 2.5; stroke-linecap: square"/>
   </g>
   <g id="text_24">
    <!-- Random Forest Regressor -->
    <g transform="translate(1014.882812 104.667188) scale(0.1 -0.1)">
     <use xlink:href="#DejaVuSans-52"/>
     <use xlink:href="#DejaVuSans-61" x="67.232422"/>
     <use xlink:href="#DejaVuSans-6e" x="128.511719"/>
     <use xlink:href="#DejaVuSans-64" x="191.890625"/>
     <use xlink:href="#DejaVuSans-6f" x="255.367188"/>
     <use xlink:href="#DejaVuSans-6d" x="316.548828"/>
     <use xlink:href="#DejaVuSans-20" x="413.960938"/>
     <use xlink:href="#DejaVuSans-46" x="445.748047"/>
     <use xlink:href="#DejaVuSans-6f" x="499.642578"/>
     <use xlink:href="#DejaVuSans-72" x="560.824219"/>
     <use xlink:href="#DejaVuSans-65" x="599.6875"/>
     <use xlink:href="#DejaVuSans-73" x="661.210938"/>
     <use xlink:href="#DejaVuSans-74" x="713.310547"/>
     <use xlink:href="#DejaVuSans-20" x="752.519531"/>
     <use xlink:href="#DejaVuSans-52" x="784.306641"/>
     <use xlink:href="#DejaVuSans-65" x="849.289062"/>
     <use xlink:href="#DejaVuSans-67" x="910.8125"/>
     <use xlink:href="#DejaVuSans-72" x="974.289062"/>
     <use xlink:href="#DejaVuSans-65" x="1013.152344"/>
     <use xlink:href="#DejaVuSans-73" x="1074.675781"/>
     <use xlink:href="#DejaVuSans-73" x="1126.775391"/>
     <use xlink:href="#DejaVuSans-6f" x="1178.875"/>
     <use xlink:href="#DejaVuSans-72" x="1240.056641"/>
    </g>
   </g>
   <g id="line2d_30">
    <path d="M 986.882812 115.845313 
L 996.882812 115.845313 
L 1006.882812 115.845313 
" style="fill: none; stroke: #e377c2; stroke-width: 2.5; stroke-linecap: square"/>
   </g>
   <g id="text_25">
    <!-- Decision Tree Regressor -->
    <g transform="translate(1014.882812 119.345313) scale(0.1 -0.1)">
     <use xlink:href="#DejaVuSans-44"/>
     <use xlink:href="#DejaVuSans-65" x="77.001953"/>
     <use xlink:href="#DejaVuSans-63" x="138.525391"/>
     <use xlink:href="#DejaVuSans-69" x="193.505859"/>
     <use xlink:href="#DejaVuSans-73" x="221.289062"/>
     <use xlink:href="#DejaVuSans-69" x="273.388672"/>
     <use xlink:href="#DejaVuSans-6f" x="301.171875"/>
     <use xlink:href="#DejaVuSans-6e" x="362.353516"/>
     <use xlink:href="#DejaVuSans-20" x="425.732422"/>
     <use xlink:href="#DejaVuSans-54" x="457.519531"/>
     <use xlink:href="#DejaVuSans-72" x="503.853516"/>
     <use xlink:href="#DejaVuSans-65" x="542.716797"/>
     <use xlink:href="#DejaVuSans-65" x="604.240234"/>
     <use xlink:href="#DejaVuSans-20" x="665.763672"/>
     <use xlink:href="#DejaVuSans-52" x="697.550781"/>
     <use xlink:href="#DejaVuSans-65" x="762.533203"/>
     <use xlink:href="#DejaVuSans-67" x="824.056641"/>
     <use xlink:href="#DejaVuSans-72" x="887.533203"/>
     <use xlink:href="#DejaVuSans-65" x="926.396484"/>
     <use xlink:href="#DejaVuSans-73" x="987.919922"/>
     <use xlink:href="#DejaVuSans-73" x="1040.019531"/>
     <use xlink:href="#DejaVuSans-6f" x="1092.119141"/>
     <use xlink:href="#DejaVuSans-72" x="1153.300781"/>
    </g>
   </g>
   <g id="line2d_31">
    <path d="M 986.882812 130.523438 
L 996.882812 130.523438 
L 1006.882812 130.523438 
" style="fill: none; stroke: #7f7f7f; stroke-width: 2.5; stroke-linecap: square"/>
   </g>
   <g id="text_26">
    <!-- MultiO/P GBR -->
    <g transform="translate(1014.882812 134.023438) scale(0.1 -0.1)">
     <defs>
      <path id="DejaVuSans-2f" d="M 1625 4666 
L 2156 4666 
L 531 -594 
L 0 -594 
L 1625 4666 
z
" transform="scale(0.015625)"/>
      <path id="DejaVuSans-42" d="M 1259 2228 
L 1259 519 
L 2272 519 
Q 2781 519 3026 730 
Q 3272 941 3272 1375 
Q 3272 1813 3026 2020 
Q 2781 2228 2272 2228 
L 1259 2228 
z
M 1259 4147 
L 1259 2741 
L 2194 2741 
Q 2656 2741 2882 2914 
Q 3109 3088 3109 3444 
Q 3109 3797 2882 3972 
Q 2656 4147 2194 4147 
L 1259 4147 
z
M 628 4666 
L 2241 4666 
Q 2963 4666 3353 4366 
Q 3744 4066 3744 3513 
Q 3744 3084 3544 2831 
Q 3344 2578 2956 2516 
Q 3422 2416 3680 2098 
Q 3938 1781 3938 1306 
Q 3938 681 3513 340 
Q 3088 0 2303 0 
L 628 0 
L 628 4666 
z
" transform="scale(0.015625)"/>
     </defs>
     <use xlink:href="#DejaVuSans-4d"/>
     <use xlink:href="#DejaVuSans-75" x="86.279297"/>
     <use xlink:href="#DejaVuSans-6c" x="149.658203"/>
     <use xlink:href="#DejaVuSans-74" x="177.441406"/>
     <use xlink:href="#DejaVuSans-69" x="216.650391"/>
     <use xlink:href="#DejaVuSans-4f" x="244.433594"/>
     <use xlink:href="#DejaVuSans-2f" x="323.144531"/>
     <use xlink:href="#DejaVuSans-50" x="356.835938"/>
     <use xlink:href="#DejaVuSans-20" x="417.138672"/>
     <use xlink:href="#DejaVuSans-47" x="448.925781"/>
     <use xlink:href="#DejaVuSans-42" x="526.416016"/>
     <use xlink:href="#DejaVuSans-52" x="595.019531"/>
    </g>
   </g>
   <g id="line2d_32">
    <path d="M 986.882812 145.201563 
L 996.882812 145.201563 
L 1006.882812 145.201563 
" style="fill: none; stroke: #bcbd22; stroke-width: 2.5; stroke-linecap: square"/>
   </g>
   <g id="text_27">
    <!-- MultiO/P AdaB -->
    <g transform="translate(1014.882812 148.701563) scale(0.1 -0.1)">
     <defs>
      <path id="DejaVuSans-41" d="M 2188 4044 
L 1331 1722 
L 3047 1722 
L 2188 4044 
z
M 1831 4666 
L 2547 4666 
L 4325 0 
L 3669 0 
L 3244 1197 
L 1141 1197 
L 716 0 
L 50 0 
L 1831 4666 
z
" transform="scale(0.015625)"/>
     </defs>
     <use xlink:href="#DejaVuSans-4d"/>
     <use xlink:href="#DejaVuSans-75" x="86.279297"/>
     <use xlink:href="#DejaVuSans-6c" x="149.658203"/>
     <use xlink:href="#DejaVuSans-74" x="177.441406"/>
     <use xlink:href="#DejaVuSans-69" x="216.650391"/>
     <use xlink:href="#DejaVuSans-4f" x="244.433594"/>
     <use xlink:href="#DejaVuSans-2f" x="323.144531"/>
     <use xlink:href="#DejaVuSans-50" x="356.835938"/>
     <use xlink:href="#DejaVuSans-20" x="417.138672"/>
     <use xlink:href="#DejaVuSans-41" x="448.925781"/>
     <use xlink:href="#DejaVuSans-64" x="515.583984"/>
     <use xlink:href="#DejaVuSans-61" x="579.060547"/>
     <use xlink:href="#DejaVuSans-42" x="640.339844"/>
    </g>
   </g>
  </g>
 </g>
 <defs>
  <clipPath id="p6be47e7a3d">
   <rect x="144" y="69.12" width="892.8" height="443.52"/>
  </clipPath>
 </defs>
</svg>
